<svg width="15" height="10" viewBox="0 0 15 10" fill="none" xmlns="http://www.w3.org/2000/svg">
<path fill-rule="evenodd" clip-rule="evenodd" d="M14.6704 0.309527C14.8815 0.506614 15 0.773886 15 1.05257C15 1.33125 14.8815 1.59852 14.6704 1.79561L6.23359 9.67303C6.1221 9.77715 5.98973 9.85975 5.84404 9.91611C5.69835 9.97246 5.5422 10.0015 5.38451 10.0015C5.22681 10.0015 5.07066 9.97246 4.92497 9.91611C4.77928 9.85975 4.64691 9.77715 4.53542 9.67303L0.343636 5.75989C0.236129 5.66294 0.150377 5.54697 0.091385 5.41875C0.0323927 5.29053 0.00134125 5.15262 4.24993e-05 5.01307C-0.00125625 4.87352 0.0272238 4.73513 0.0838206 4.60597C0.140417 4.47681 0.223998 4.35946 0.329684 4.26078C0.435371 4.16211 0.561048 4.08407 0.699382 4.03122C0.837715 3.97838 0.985936 3.95179 1.13539 3.953C1.28485 3.95421 1.43255 3.98321 1.56988 4.03829C1.70721 4.09337 1.83142 4.17343 1.93525 4.27381L5.38413 7.494L13.0781 0.309527C13.1826 0.211863 13.3067 0.134389 13.4433 0.0815301C13.5799 0.0286714 13.7264 0.00146484 13.8743 0.00146484C14.0221 0.00146484 14.1686 0.0286714 14.3052 0.0815301C14.4418 0.134389 14.5659 0.211863 14.6704 0.309527Z" fill="currentcolor"/>
</svg>
