<svg width="50" height="47" viewBox="0 0 50 47" fill="none" xmlns="http://www.w3.org/2000/svg">
<path d="M48.8514 30.4538H48.5388V22.6492C48.5388 21.4426 47.5077 20.4611 46.2403 20.4611C46.2403 20.4611 43.9529 20.4607 43.9511 20.4607C43.9439 20.4601 43.9373 20.4563 43.934 20.4501L40.4886 13.8198C39.9681 12.8183 38.9157 12.1962 37.742 12.1962H32.3492V8.91769C32.3492 8.136 31.6811 7.5 30.86 7.5H2.95061C2.12941 7.5 1.46134 8.136 1.46134 8.91769V13.5743C1.46134 13.9594 1.78927 14.2716 2.19377 14.2716C2.59826 14.2716 2.92619 13.9594 2.92619 13.5743V8.91769C2.92619 8.90496 2.93713 8.89454 2.95061 8.89454H30.8601C30.8735 8.89454 30.8844 8.90496 30.8844 8.91769V30.4538H14.2193C13.1072 29.2338 11.4684 28.4599 9.64246 28.4599C7.81647 28.4599 6.17768 29.2338 5.06557 30.4538H2.92619V16.8097C2.92619 16.4246 2.59826 16.1124 2.19377 16.1124C1.78927 16.1124 1.46134 16.4246 1.46134 16.8097V30.4538H1.14874C0.515336 30.4538 0 30.9445 0 31.5475V34.5629C0 35.1659 0.515336 35.6566 1.14884 35.6566H3.76927C4.43802 38.1505 6.81744 40 9.64236 40C12.4673 40 14.8468 38.1505 15.5155 35.6566H27.2171C27.6216 35.6566 27.9495 35.3444 27.9495 34.9593C27.9495 34.5742 27.6216 34.262 27.2171 34.262H15.7024C15.7025 34.2513 15.7032 34.2407 15.7032 34.2299C15.7032 33.3809 15.508 32.575 15.1607 31.8483H34.8393C34.492 32.575 34.2968 33.3809 34.2968 34.2299C34.2968 34.2407 34.2975 34.2512 34.2976 34.262H30.5473C30.1428 34.262 29.8149 34.5742 29.8149 34.9593C29.8149 35.3444 30.1428 35.6566 30.5473 35.6566H34.4845C35.1533 38.1505 37.5327 40 40.3576 40C43.1826 40 45.5621 38.1505 46.2307 35.6566H48.8512C49.4846 35.6566 50 35.166 50 34.5629V31.5475C50.0002 30.9445 49.4849 30.4538 48.8514 30.4538ZM1.46486 34.262V31.8484H4.12406C3.77669 32.5751 3.58147 33.381 3.58147 34.23C3.58147 34.2408 3.58225 34.2513 3.58235 34.2621L1.46486 34.262ZM9.64236 38.6054C7.10806 38.6054 5.04633 36.6425 5.04633 34.2299C5.04633 31.8174 7.10816 29.8545 9.64236 29.8545C12.1766 29.8545 14.2384 31.8174 14.2384 34.2299C14.2384 36.6425 12.1767 38.6054 9.64236 38.6054ZM47.074 26.1218H45.6382C45.1787 26.1218 44.8047 25.7658 44.8047 25.3284C44.8047 24.891 45.1787 24.535 45.6382 24.535H47.074V26.1218ZM42.3049 20.4602H35.2219V16.1139H40.0464L42.3049 20.4602ZM32.3493 30.4538V13.5906H37.7421C38.3547 13.5906 38.904 13.9154 39.1757 14.4381L39.3218 14.7193H35.0383C34.3318 14.7193 33.757 15.2664 33.757 15.939V20.635C33.757 21.3076 34.3317 21.8548 35.0383 21.8548L46.2404 21.8557C46.7001 21.8557 47.074 22.2117 47.074 22.6493V23.1404H45.6382C44.371 23.1404 43.3399 24.122 43.3399 25.3284C43.3399 26.5348 44.371 27.5163 45.6382 27.5163H47.074V30.4538H44.9347C43.8226 29.2338 42.1838 28.4599 40.3578 28.4599C38.5318 28.4599 36.8931 29.2338 35.7809 30.4538H32.3493ZM40.3578 38.6054C37.8235 38.6054 35.7618 36.6425 35.7618 34.2299C35.7618 31.8174 37.8236 29.8545 40.3578 29.8545C42.892 29.8545 44.9539 31.8174 44.9539 34.2299C44.9539 36.6425 42.892 38.6054 40.3578 38.6054ZM48.5353 34.262H46.4178C46.4179 34.2513 46.4187 34.2407 46.4187 34.2299C46.4187 33.3809 46.2235 32.575 45.8761 31.8483H48.5353V34.262Z" fill="currentcolor"/>
<path d="M37.3605 24.5989C37.3605 24.2138 37.0326 23.9016 36.6281 23.9016H34.489C34.0845 23.9016 33.7566 24.2138 33.7566 24.5989C33.7566 24.9839 34.0845 25.2961 34.489 25.2961H36.6281C37.0326 25.2961 37.3605 24.9839 37.3605 24.5989Z" fill="currentcolor"/>
<path d="M9.64235 31.5878C8.11207 31.5878 6.86705 32.7731 6.86705 34.2299C6.86705 35.6868 8.11207 36.872 9.64235 36.872C11.1726 36.872 12.4177 35.6868 12.4177 34.2299C12.4177 32.7731 11.1727 31.5878 9.64235 31.5878ZM9.64235 35.4775C8.91979 35.4775 8.3319 34.9178 8.3319 34.2299C8.3319 33.5421 8.91979 32.9824 9.64235 32.9824C10.3649 32.9824 10.9528 33.5421 10.9528 34.2299C10.9528 34.9178 10.365 35.4775 9.64235 35.4775Z" fill="currentcolor"/>
<path d="M40.3578 31.5878C38.8275 31.5878 37.5825 32.7731 37.5825 34.2299C37.5825 35.6868 38.8275 36.872 40.3578 36.872C41.8881 36.872 43.1331 35.6868 43.1331 34.2299C43.1331 32.7731 41.8881 31.5878 40.3578 31.5878ZM40.3578 35.4775C39.6353 35.4775 39.0474 34.9178 39.0474 34.2299C39.0474 33.5421 39.6353 32.9824 40.3578 32.9824C41.0804 32.9824 41.6683 33.5421 41.6683 34.2299C41.6683 34.9178 41.0804 35.4775 40.3578 35.4775Z" fill="currentcolor"/>
</svg>
