<svg width="50" height="50" viewBox="0 0 50 50" fill="none" xmlns="http://www.w3.org/2000/svg">
<path d="M47.4998 8.31415C47.4998 8.30901 47.4992 8.30387 47.499 8.29864C47.4984 8.27818 47.4972 8.25799 47.4948 8.23798C47.4939 8.23064 47.4925 8.2233 47.4914 8.21595C47.4886 8.19751 47.4852 8.17934 47.4809 8.16153C47.4792 8.15447 47.4774 8.14749 47.4754 8.14043C47.47 8.12106 47.4639 8.10207 47.4569 8.08334C47.4556 8.07976 47.4547 8.07609 47.4533 8.07261L45.5659 3.29291C45.3756 2.81129 44.9148 2.5 44.392 2.5H40.9553C40.5807 2.5 40.2771 2.80037 40.2771 3.17095C40.2771 3.54153 40.5807 3.8419 40.9553 3.8419H44.3263L45.8284 7.64577H31.6273L30.7375 3.8419H35.9822C36.3568 3.8419 36.6605 3.54153 36.6605 3.17095C36.6605 2.80037 36.3568 2.5 35.9822 2.5H8.54222C8.01935 2.5 7.55864 2.81129 7.36836 3.2931L5.48089 8.07261C5.4795 8.07619 5.47876 8.07986 5.47737 8.08334C5.47032 8.10197 5.46419 8.12097 5.45881 8.14043C5.45686 8.14749 5.45501 8.15447 5.45334 8.16153C5.44907 8.17943 5.44564 8.1976 5.44286 8.21595C5.44174 8.2233 5.44035 8.23064 5.43942 8.23798C5.4371 8.25799 5.4358 8.27818 5.43525 8.29864C5.43516 8.30378 5.43451 8.30892 5.43441 8.31415C5.43441 8.31498 5.43432 8.3158 5.43432 8.31663V18.1739C5.43432 18.5445 5.73797 18.8449 6.11259 18.8449C6.4872 18.8449 6.79085 18.5445 6.79085 18.1739V8.98767H21.1681V19.1862C21.1681 19.585 21.4056 19.9484 21.7733 20.1121C21.9079 20.172 22.0512 20.2013 22.1936 20.2013C22.44 20.2013 22.6837 20.1137 22.8748 19.9461L26.4671 16.798L30.0594 19.946C30.361 20.2106 30.7935 20.2757 31.1612 20.1121C31.5287 19.9483 31.7662 19.585 31.7662 19.1862V8.98767H46.1434V39.082C46.1434 39.5634 45.7473 39.9552 45.2606 39.9552H32.8241C32.8241 39.9476 32.8232 39.9399 32.8231 39.9323C32.8224 39.8721 32.8201 39.812 32.8149 39.7524C33.9827 40.0586 35.2304 39.4649 35.6983 38.3297C35.9445 37.7325 35.9408 37.0764 35.688 36.482C35.6642 36.4261 35.6379 36.3717 35.6103 36.3182C35.6052 36.3084 35.6003 36.2985 35.5952 36.2888C35.568 36.2378 35.539 36.1879 35.5085 36.1394C35.5026 36.1299 35.4965 36.1207 35.4904 36.1114C35.4581 36.0615 35.4246 36.0126 35.3889 35.9656C35.3883 35.9646 35.3875 35.9638 35.3869 35.963C35.3514 35.9165 35.314 35.8717 35.2753 35.8279C35.2682 35.8199 35.2613 35.8118 35.2541 35.8039C35.2158 35.7616 35.176 35.7208 35.1348 35.6814C35.1268 35.6737 35.1186 35.6663 35.1104 35.6588C35.0673 35.6187 35.0231 35.5797 34.9771 35.5429C34.9755 35.5417 34.974 35.5405 34.9724 35.5393C34.9271 35.5032 34.8801 35.4691 34.8321 35.4362C34.8235 35.4302 34.8149 35.4242 34.8061 35.4183C34.7582 35.3864 34.709 35.3562 34.6585 35.3275C34.6543 35.3251 34.6505 35.3223 34.6463 35.3199C34.9329 35.0745 35.1592 34.764 35.3065 34.4066C35.5527 33.8095 35.5491 33.1533 35.2962 32.5589C35.0751 32.0388 34.6863 31.6205 34.1883 31.361C34.1171 31.3239 34.0437 31.29 33.9683 31.2596L23.4119 27.0017L28.3257 25.4972C29.4948 25.1392 30.1532 23.9057 29.7934 22.7478C29.6592 22.3156 29.393 21.9511 29.0492 21.6847C28.5375 21.2881 27.8537 21.1091 27.1755 21.2499C27.1723 21.2507 27.1691 21.2512 27.1659 21.252C27.1283 21.2604 23.3613 22.0983 19.4271 22.8571C19.2526 22.8908 19.0826 22.9233 18.9149 22.9553C18.7808 22.9808 18.6485 23.0059 18.5187 23.0303C18.4814 23.0374 18.444 23.0444 18.407 23.0513C18.1778 23.0944 17.9558 23.1356 17.74 23.1752C17.6532 23.1912 17.5671 23.207 17.4824 23.2224C12.5416 24.1228 11.1536 24.1389 10.7684 24.0874C10.7669 24.0872 10.7656 24.087 10.7641 24.0867C10.7583 24.0859 10.7525 24.0851 10.7472 24.0842C10.7433 24.0836 10.7396 24.083 10.736 24.0824C10.7334 24.0819 10.7306 24.0815 10.7281 24.0811C10.7041 24.0768 10.6854 24.0723 10.6709 24.068L10.5598 24.0232L10.6983 23.6872C10.8345 23.3568 10.8324 22.9938 10.6926 22.665C10.6576 22.5827 10.6151 22.5051 10.5657 22.4328C10.4176 22.2159 10.2082 22.0471 9.95776 21.946L6.31474 20.4767C5.98085 20.3418 5.61374 20.344 5.28134 20.4823C4.94884 20.6206 4.69084 20.8787 4.55465 21.209L0.0999555 32.0164C-0.181147 32.6984 0.151074 33.4793 0.840471 33.7575L4.48358 35.227C4.64992 35.2941 4.82202 35.3258 4.99151 35.3258C5.52431 35.3258 6.0303 35.0118 6.24358 34.4944L6.27707 34.4132L7.11704 34.752C7.1175 34.7521 7.11797 34.7524 7.11853 34.7526C7.92194 35.0766 8.66218 35.539 9.30287 36.1128C9.41939 36.2171 9.53258 36.3251 9.64233 36.4366C9.75208 36.5481 9.85821 36.6632 9.96072 36.7816C10.0119 36.8408 10.0623 36.9009 10.1116 36.9617C11.0451 38.1133 12.269 39.0166 13.6507 39.574L14.5957 39.9551H7.67368C7.18699 39.9551 6.79094 39.5633 6.79094 39.0819V37.3842C6.79094 37.0136 6.4873 36.7132 6.11268 36.7132C5.73806 36.7132 5.43441 37.0136 5.43441 37.3842V39.0819C5.43441 40.3033 6.43887 41.297 7.67368 41.297H17.9226L26.6601 44.8212C26.9609 44.9426 27.272 45.0001 27.5784 45C28.5413 45 29.4559 44.4324 29.8414 43.4973C29.9995 43.1138 30.0502 42.7129 30.0076 42.3276C30.4621 42.3921 30.9333 42.3329 31.3604 42.1505C31.7945 41.965 32.1543 41.6696 32.4098 41.2969H45.2607C46.4955 41.2969 47.5 40.3033 47.5 39.0818V8.31672C47.4999 8.3158 47.4998 8.31507 47.4998 8.31415ZM23.5892 3.8419H29.345L30.2348 7.64577H22.6994L23.5892 3.8419ZM21.3071 7.64577H7.10582L8.60791 3.8419H22.1969L21.3071 7.64577ZM30.4099 18.4603L27.1477 15.6016C26.9537 15.4317 26.7105 15.3467 26.4673 15.3467C26.2241 15.3467 25.9807 15.4317 25.7867 15.6016L22.5247 18.4603V8.98767H30.4099V18.4603ZM4.98984 33.982L1.35842 32.5173L5.80838 21.7216L9.4398 23.1864L4.98984 33.982ZM31.309 37.717C31.3087 37.7168 31.3083 37.7168 31.3079 37.7166C31.3076 37.7165 31.3074 37.7163 31.3071 37.7162C31.3072 37.7162 31.307 37.7162 31.3071 37.7162L23.1997 34.4462C22.8529 34.3063 22.4571 34.471 22.3156 34.8142C22.1741 35.1573 22.3407 35.5489 22.6876 35.6889L30.7949 38.9589C30.8288 38.9726 30.8615 38.9877 30.8931 39.0043C30.902 39.009 30.9103 39.0147 30.919 39.0196C30.9413 39.032 30.9636 39.0445 30.9847 39.0584C30.9948 39.0651 31.0041 39.0728 31.0139 39.0798C31.0326 39.093 31.0516 39.106 31.0692 39.1203C31.0799 39.129 31.0895 39.1386 31.0998 39.1476C31.1156 39.1614 31.1318 39.1748 31.1466 39.1895C31.1569 39.1996 31.1661 39.2107 31.1759 39.2212C31.1895 39.2357 31.2036 39.2499 31.2164 39.2651C31.2261 39.2768 31.2346 39.2892 31.2439 39.3012C31.2555 39.3163 31.2676 39.331 31.2782 39.3466C31.2872 39.3597 31.2949 39.3734 31.3033 39.3867C31.3129 39.4022 31.3231 39.4173 31.332 39.4332C31.3399 39.4475 31.3466 39.4625 31.3539 39.477C31.3617 39.4927 31.3702 39.5082 31.3772 39.5242C31.384 39.5396 31.3895 39.5556 31.3955 39.5713C31.4016 39.5872 31.4083 39.6028 31.4137 39.6189C31.4191 39.6352 31.4231 39.6518 31.4277 39.6682C31.4322 39.6844 31.4373 39.7004 31.4412 39.7168C31.445 39.7335 31.4474 39.7503 31.4504 39.767C31.4535 39.7837 31.457 39.8003 31.4592 39.8171C31.4615 39.834 31.4623 39.8511 31.4637 39.8681C31.4651 39.8852 31.4671 39.9021 31.4677 39.9192C31.4682 39.936 31.4674 39.953 31.4672 39.9699C31.467 39.9873 31.4673 40.0047 31.4662 40.0223C31.4652 40.0389 31.4627 40.0555 31.4608 40.0721C31.4589 40.09 31.4574 40.1079 31.4544 40.1257C31.4517 40.142 31.4475 40.1583 31.4441 40.1746C31.4402 40.1927 31.437 40.2108 31.4321 40.2288C31.4278 40.2446 31.422 40.2604 31.4169 40.2762C31.4112 40.2942 31.4059 40.3122 31.3991 40.3299C31.3934 40.3421 31.3877 40.3544 31.3824 40.3668C31.3812 40.3696 31.3806 40.3726 31.3795 40.3753C31.2735 40.6173 31.0779 40.8096 30.8225 40.9187C30.5414 41.0386 30.2196 41.0429 29.9394 40.9298L28.503 40.3504C28.4963 40.3478 28.4896 40.3459 28.4829 40.3435C28.4761 40.3404 28.4697 40.337 28.4628 40.3342L21.8689 37.6745C21.5218 37.5347 21.1262 37.6993 20.9848 38.0425C20.8433 38.3857 21.0098 38.7773 21.3567 38.9172L27.9507 41.5769C27.9577 41.5797 27.9648 41.5818 27.972 41.5843C27.9784 41.5871 27.9843 41.5905 27.9909 41.593C28.5443 41.8163 28.811 42.4433 28.5854 42.9907C28.3597 43.5383 27.7261 43.8023 27.1725 43.5788L18.3131 40.0054C18.3127 40.0052 18.3124 40.005 18.312 40.0048L14.1632 38.3314C13.4329 38.0368 12.7547 37.6279 12.156 37.1249C11.7968 36.8231 11.4662 36.4875 11.1701 36.1222C10.8783 35.7624 10.5583 35.4268 10.2139 35.1183C9.45622 34.4398 8.58091 33.8931 7.631 33.5099C7.6311 33.5099 7.63091 33.5099 7.631 33.5099L6.78964 33.1706L10.0479 25.2659L10.1647 25.313C10.2747 25.3573 10.4315 25.4203 10.8534 25.436C11.3805 25.4596 12.2526 25.4052 13.8149 25.1869C14.8776 25.0384 16.1812 24.8236 17.7029 24.5467C17.7404 24.5399 17.7776 24.5331 17.8155 24.5262C17.8866 24.5132 17.9585 24.5 18.0307 24.4867C18.0868 24.4765 18.1432 24.466 18.2001 24.4555C18.2649 24.4434 18.3299 24.4314 18.3954 24.4192C18.4649 24.4063 18.5352 24.3931 18.6059 24.3798C18.6625 24.3692 18.719 24.3586 18.7761 24.3479C18.8623 24.3317 18.95 24.315 19.0379 24.2983C19.0832 24.2897 19.128 24.2813 19.1737 24.2726C19.3084 24.2469 19.4448 24.2209 19.5838 24.1942C23.5045 23.4398 27.2887 22.6002 27.4588 22.5624C27.4757 22.5589 27.4927 22.5569 27.5097 22.5544C27.9454 22.4906 28.3722 22.7399 28.4972 23.142C28.5411 23.2833 28.5462 23.4275 28.5185 23.5632C28.4577 23.8617 28.2384 24.1193 27.925 24.2152L21.2006 26.274C20.9268 26.3579 20.7359 26.6027 20.7235 26.8859C20.7111 27.169 20.8798 27.4293 21.1451 27.5363L33.4565 32.5022C33.7246 32.6104 33.9341 32.8153 34.0463 33.0793C34.1586 33.3433 34.1602 33.6348 34.0509 33.8999C33.9415 34.1652 33.7344 34.3724 33.4675 34.4834C33.3341 34.5389 33.1937 34.5669 33.0532 34.5678C33.0511 34.5678 33.0491 34.5675 33.0471 34.5675C33.014 34.5675 32.9811 34.5662 32.9482 34.5632C32.9384 34.5623 32.9288 34.5602 32.919 34.5591C32.8939 34.5561 32.8687 34.5533 32.8438 34.5485C32.828 34.5455 32.8124 34.5409 32.7968 34.5372C32.778 34.5328 32.7592 34.529 32.7406 34.5236C32.7214 34.518 32.7026 34.5106 32.6837 34.5039C32.6686 34.4986 32.6533 34.4942 32.6385 34.4882L24.5305 31.2178C24.1836 31.0778 23.7878 31.2426 23.6463 31.5858C23.5049 31.9289 23.6714 32.3205 24.0184 32.4605L33.8481 36.4253C33.9152 36.4523 33.9786 36.4854 34.0377 36.524C34.215 36.6396 34.3539 36.8044 34.438 37.0024C34.5362 37.2334 34.5498 37.4854 34.4784 37.7224C34.4682 37.7563 34.4562 37.7899 34.4425 37.823C34.4284 37.8573 34.4128 37.8904 34.3956 37.9223C34.3556 37.9967 34.3069 38.0638 34.2525 38.1251C34.2188 38.163 34.1827 38.1985 34.1443 38.231C34.1382 38.2361 34.1326 38.242 34.1264 38.2469C33.8789 38.4472 33.5479 38.5333 33.2246 38.4686C33.159 38.4555 33.0938 38.4369 33.0296 38.411L31.309 37.717Z" fill="currentcolor"/>
</svg>
