<svg width="13" height="16" viewBox="0 0 13 16" fill="none" xmlns="http://www.w3.org/2000/svg">
<path d="M5.31731 15.811C5.3719 15.871 5.43714 15.9186 5.50917 15.951C5.5812 15.9835 5.65856 16.0001 5.73669 16C5.81482 15.9999 5.89213 15.983 5.96407 15.9503C6.03601 15.9176 6.10111 15.8698 6.15552 15.8097L12.8175 8.48072C12.9345 8.35201 13 8.17939 13 7.99965C13 7.81992 12.9345 7.6473 12.8175 7.51859L6.15552 0.189653C6.10102 0.129633 6.03585 0.0819283 5.96387 0.0493546C5.89189 0.0167809 5.81455 0 5.73642 0C5.65829 0 5.58095 0.0167809 5.50897 0.0493546C5.43698 0.0819283 5.37182 0.129633 5.31731 0.189653C5.20518 0.312741 5.1424 0.477977 5.1424 0.650039C5.1424 0.822101 5.20518 0.987335 5.31731 1.11042L11.582 7.99965L5.31731 14.8916C5.20556 15.0147 5.14303 15.1796 5.14303 15.3513C5.14303 15.5231 5.20556 15.688 5.31731 15.811ZM0.174909 15.811C0.2295 15.871 0.294735 15.9186 0.366764 15.951C0.438792 15.9835 0.516155 16.0001 0.594286 16C0.672417 15.9999 0.749732 15.983 0.821668 15.9503C0.893604 15.9176 0.958702 15.8698 1.01312 15.8097L7.6751 8.48072C7.79211 8.35201 7.8576 8.17939 7.8576 7.99965C7.8576 7.81992 7.79211 7.6473 7.6751 7.51859L1.01312 0.189653C0.958616 0.129633 0.89345 0.0819283 0.821467 0.0493546C0.749485 0.0167809 0.672146 0 0.594015 0C0.515884 0 0.438545 0.0167809 0.366563 0.0493546C0.29458 0.0819283 0.229414 0.129633 0.174909 0.189653C0.0627762 0.312741 0 0.477977 0 0.650039C0 0.822101 0.0627762 0.987335 0.174909 1.11042L6.43964 7.99965L0.174909 14.8916C0.0631609 15.0147 0.000626815 15.1796 0.000626815 15.3513C0.000626815 15.5231 0.0631609 15.688 0.174909 15.811Z" fill="currentcolor"/>
</svg>
