<svg width="13" height="16" viewBox="0 0 13 16" fill="none" xmlns="http://www.w3.org/2000/svg">
<path d="M7.68269 15.811C7.6281 15.871 7.56286 15.9186 7.49083 15.951C7.4188 15.9835 7.34144 16.0001 7.26331 16C7.18518 15.9999 7.10787 15.983 7.03593 15.9503C6.96399 15.9176 6.89889 15.8698 6.84448 15.8097L0.182493 8.48072C0.065486 8.35201 9.53674e-07 8.17939 9.53674e-07 7.99965C9.53674e-07 7.81992 0.065486 7.6473 0.182493 7.51859L6.84448 0.189653C6.89898 0.129633 6.96415 0.0819283 7.03613 0.0493546C7.10811 0.0167809 7.18545 0 7.26358 0C7.34171 0 7.41905 0.0167809 7.49103 0.0493546C7.56302 0.0819283 7.62818 0.129633 7.68269 0.189653C7.79482 0.312741 7.8576 0.477977 7.8576 0.650039C7.8576 0.822101 7.79482 0.987335 7.68269 1.11042L1.41796 7.99965L7.68269 14.8916C7.79444 15.0147 7.85697 15.1796 7.85697 15.3513C7.85697 15.5231 7.79444 15.688 7.68269 15.811ZM12.8251 15.811C12.7705 15.871 12.7053 15.9186 12.6332 15.951C12.5612 15.9835 12.4838 16.0001 12.4057 16C12.3276 15.9999 12.2503 15.983 12.1783 15.9503C12.1064 15.9176 12.0413 15.8698 11.9869 15.8097L5.3249 8.48072C5.20789 8.35201 5.1424 8.17939 5.1424 7.99965C5.1424 7.81992 5.20789 7.6473 5.3249 7.51859L11.9869 0.189653C12.0414 0.129633 12.1066 0.0819283 12.1785 0.0493546C12.2505 0.0167809 12.3279 0 12.406 0C12.4841 0 12.5615 0.0167809 12.6334 0.0493546C12.7054 0.0819283 12.7706 0.129633 12.8251 0.189653C12.9372 0.312741 13 0.477977 13 0.650039C13 0.822101 12.9372 0.987335 12.8251 1.11042L6.56036 7.99965L12.8251 14.8916C12.9368 15.0147 12.9994 15.1796 12.9994 15.3513C12.9994 15.5231 12.9368 15.688 12.8251 15.811Z" fill="currentcolor"/>
</svg>
