<svg width="40" height="34" viewBox="0 0 40 34" fill="none" xmlns="http://www.w3.org/2000/svg">
<path d="M37.8263 11.2397C38.5187 8.01135 39.3568 0.86542 35.0568 0.139945C31.9958 -0.367887 25.7644 0.611504 24.0516 3.6585C22.7397 3.18694 21.3914 2.78793 20.0431 2.78793C18.6948 2.78793 17.3465 3.18694 16.0346 3.6585C14.2854 0.611504 8.01758 -0.404161 4.99297 0.139945C0.656491 0.86542 1.49463 8.01135 2.18701 11.2397C-1.202 15.3386 0.292081 21.2875 0.547168 26.6198C0.838696 32.5687 4.04551 34.4186 9.80319 33.9108C12.9736 33.6206 16.1439 32.1334 16.1804 28.6511C16.1804 27.6717 16.1439 19.1111 16.071 19.1111C17.3829 19.1111 18.6948 19.1111 20.0067 19.1474C21.3185 19.1111 22.6304 19.1111 23.9423 19.1111C23.8694 19.1111 23.833 27.6354 23.833 28.6511C23.833 32.1334 27.0033 33.5843 30.2102 33.9108C35.9678 34.4549 39.1746 32.5687 39.4662 26.6198C39.7213 21.2513 41.1789 15.3386 37.8263 11.2397ZM30.1008 3.73105C31.4856 3.36831 32.9068 3.15067 34.328 3.18694C35.4577 3.22321 35.2755 6.63295 34.9839 8.91819C32.4695 7.35842 29.8093 6.01629 27.0762 4.89181C27.3678 4.78299 27.805 4.49279 27.9508 4.42025C28.6432 4.13006 29.372 3.91242 30.1008 3.73105ZM5.68535 3.18694C7.07011 3.04185 8.56419 3.40458 9.91251 3.73105C10.6413 3.91242 11.3701 4.16633 12.0625 4.42025C12.2083 4.49279 12.6456 4.74671 12.9371 4.89181C10.204 6.01629 7.54384 7.3947 4.99297 8.95447C4.73788 6.66922 4.51924 3.29576 5.68535 3.18694ZM36.8789 18.6033C36.6967 21.7228 36.806 25.1688 36.1865 28.2158C35.567 31.2991 32.4695 31.2628 29.7364 30.6462C28.6068 30.3923 27.0033 29.7393 27.0033 29.1589C27.0033 27.4178 27.0033 25.6404 27.0033 23.8993C27.0033 21.0336 27.8779 16.8984 24.5254 16.0641C24.3432 15.9916 24.1609 15.9553 23.9423 15.9553C22.7762 15.9553 21.3914 15.8465 20.0067 15.8102C18.5855 15.8465 17.2372 15.9553 16.071 15.9553C15.8524 15.9553 15.6702 15.9916 15.488 16.0641C12.1354 16.8984 13.01 21.0336 13.01 23.8993C13.01 25.6404 13.01 27.4178 13.01 29.1589C13.01 29.7393 11.4066 30.3923 10.2769 30.6462C7.54384 31.2628 4.4828 31.3354 3.82686 28.2158C3.20736 25.1688 3.31669 21.7228 3.13448 18.6033C2.87939 14.4681 4.84721 12.5818 8.19978 10.6593C11.0057 9.06329 13.9575 7.68489 17.0185 6.63295C18.0389 6.27021 19.0228 6.16139 19.9702 6.19766C20.9177 6.16139 21.9016 6.30648 22.922 6.63295C25.983 7.68489 28.9712 9.02701 31.7407 10.6593C35.1661 12.6181 37.1339 14.4681 36.8789 18.6033Z" fill="currentcolor"/>
<path d="M8.67351 26.8012C9.49867 26.8012 10.1676 26.1353 10.1676 25.3139C10.1676 24.4926 9.49867 23.8267 8.67351 23.8267C7.84836 23.8267 7.17943 24.4926 7.17943 25.3139C7.17943 26.1353 7.84836 26.8012 8.67351 26.8012Z" fill="currentcolor"/>
<path d="M31.3398 26.8012C32.165 26.8012 32.8339 26.1353 32.8339 25.3139C32.8339 24.4926 32.165 23.8267 31.3398 23.8267C30.5147 23.8267 29.8457 24.4926 29.8457 25.3139C29.8457 26.1353 30.5147 26.8012 31.3398 26.8012Z" fill="currentcolor"/>
<path d="M21.355 30.2109C21.3185 30.4285 21.1728 30.5373 20.9541 30.5373C20.6991 30.5373 20.5897 30.4285 20.4804 30.2472C20.4804 30.2109 20.444 30.2109 20.444 30.2109C20.444 29.7393 20.5168 29.304 20.4804 28.8325C20.8084 28.6874 21.0999 28.3609 21.4279 28.0345C22.0109 27.5266 21.9016 26.7649 19.9702 26.6923C18.0389 26.7649 17.9295 27.5266 18.5126 28.0345C18.877 28.3609 19.1685 28.6874 19.5329 28.8325C19.5329 29.304 19.4965 29.7756 19.4601 30.2472C19.3507 30.4285 19.2414 30.5011 18.9863 30.5373C18.7677 30.5373 18.6219 30.4285 18.5855 30.2109C18.4761 29.5942 17.5651 29.8844 17.6744 30.4648C17.7838 31.0815 18.2939 31.4079 18.877 31.4805C19.3143 31.5167 19.6787 31.3716 19.9338 31.1177C20.0067 31.1903 20.0796 31.2266 20.1524 31.2991C20.4075 31.4442 20.7355 31.4805 21.027 31.4805C21.6101 31.4805 22.1203 31.0452 22.2296 30.4648C22.3753 29.8481 21.4643 29.5942 21.355 30.2109Z" fill="currentcolor"/>
</svg>
