<svg width="17" height="17" viewBox="0 0 17 17" fill="none" xmlns="http://www.w3.org/2000/svg">
<path d="M13.4698 10.3934C14.5316 10.7921 15.7693 10.0008 16.2343 8.62072C16.6992 7.24061 16.2091 5.79916 15.1473 5.39432C14.0856 4.99562 12.8478 5.78689 12.3829 7.167C11.9243 8.55325 12.4081 9.9947 13.4698 10.3934Z" fill="currentcolor"/>
<path d="M10.6049 5.63968C11.6981 5.79302 12.7222 4.6644 12.8855 3.11254C13.0489 1.56068 12.3012 0.17443 11.2018 0.0149505C10.1086 -0.138395 9.08446 0.99023 8.92111 2.54209C8.75148 4.10008 9.50541 5.48633 10.6049 5.63968Z" fill="currentcolor"/>
<path d="M0.175492 8.62072C0.640418 10.0008 1.87812 10.7982 2.93991 10.3934C4.0017 9.9947 4.49176 8.54712 4.02683 7.167C3.56191 5.78689 2.3242 4.98949 1.26241 5.39432C0.200623 5.79916 -0.289433 7.24061 0.175492 8.62072Z" fill="currentcolor"/>
<path d="M3.52421 3.11254C3.69385 4.6644 4.71794 5.79916 5.81114 5.63968C6.90434 5.48633 7.65828 4.10008 7.49492 2.54209C7.33157 0.990231 6.30748 -0.144529 5.21428 0.0149505C4.11479 0.17443 3.36086 1.56068 3.52421 3.11254Z" fill="currentcolor"/>
<path d="M2.88337 14.8282C3.55562 16.1408 5.20799 16.7481 6.38287 16.2205C6.57764 16.1285 6.61533 16.1408 7.3567 15.7912C7.59545 15.6808 7.84676 15.601 8.20488 15.601C8.57556 15.601 8.82059 15.6808 9.05305 15.7912C9.79442 16.1408 9.82583 16.1285 10.0269 16.2205C11.2018 16.7419 12.8541 16.1347 13.5264 14.8282C14.5442 12.8408 12.4018 11.3687 11.9683 10.9516C11.0635 10.0744 10.9756 9.18503 10.8876 8.78633C10.5295 7.22834 9.26667 6.63336 8.20488 6.60269C7.14309 6.63949 5.88025 7.22834 5.52213 8.78633C5.43417 9.18503 5.34621 10.0683 4.44149 10.9516C4.00798 11.3748 1.86556 12.8408 2.88337 14.8282Z" fill="currentcolor"/>
</svg>
