<svg width="41" height="40" viewBox="0 0 41 40" fill="none" xmlns="http://www.w3.org/2000/svg">
<path d="M17.5248 0C14.0587 0 10.6705 1.02779 7.78855 2.95339C4.90661 4.87899 2.66041 7.61592 1.334 10.8181C0.00759325 14.0202 -0.339456 17.5438 0.336742 20.9432C1.01294 24.3426 2.68202 27.4651 5.1329 29.9159C7.58379 32.3668 10.7064 34.0358 14.1059 34.712C17.5054 35.3882 21.029 35.0411 24.2313 33.7147C27.4335 32.3884 30.1705 30.1422 32.0961 27.2604C34.0218 24.3785 35.0496 20.9903 35.0496 17.5244C35.0496 12.8766 33.2032 8.41922 29.9167 5.13276C26.6302 1.84631 22.1727 0 17.5248 0ZM17.5248 31.9965C14.6308 31.9964 11.8021 31.1365 9.39777 29.526C6.99338 27.9154 5.12173 25.6268 4.02035 22.9507C2.91898 20.2746 2.63755 17.3316 3.21178 14.4952C3.78602 11.6589 5.19002 9.05705 7.2456 7.02002C9.30117 4.983 11.9156 3.60261 14.7571 3.05406C17.5986 2.5055 20.5391 2.81352 23.2052 3.93902C25.8713 5.06451 28.1429 6.95673 29.7317 9.37551C31.3205 11.7943 32.1549 14.6306 32.1288 17.5244C32.0941 21.3747 30.5402 25.0555 27.8052 27.7658C25.0702 30.4762 21.3754 31.9967 17.5248 31.9965Z" fill="white"/>
<path d="M40.4677 37.5167L32.9174 29.9666C32.2952 30.7364 31.6167 31.4588 30.8875 32.128L38.4085 39.6488C38.6879 39.8881 39.0473 40.0131 39.4148 39.9989C39.7824 39.9847 40.131 39.8324 40.3911 39.5723C40.6512 39.3122 40.8036 38.9635 40.8178 38.596C40.832 38.2285 40.7069 37.8691 40.4677 37.5897V37.5167Z" fill="white"/>
<path d="M24.8268 16.064H18.9852V10.2225C18.9852 9.83523 18.8313 9.46378 18.5575 9.18991C18.2836 8.91604 17.9121 8.76218 17.5248 8.76218C17.1375 8.76218 16.766 8.91604 16.4921 9.18991C16.2183 9.46378 16.0644 9.83523 16.0644 10.2225V16.064H10.2228C9.83548 16.064 9.46403 16.2178 9.19015 16.4917C8.91627 16.7656 8.76241 17.137 8.76241 17.5244C8.76241 17.9117 8.91627 18.2831 9.19015 18.557C9.46403 18.8309 9.83548 18.9847 10.2228 18.9847H16.0644V24.8262C16.0644 25.2135 16.2183 25.5849 16.4921 25.8588C16.766 26.1327 17.1375 26.2865 17.5248 26.2865C17.9121 26.2865 18.2836 26.1327 18.5575 25.8588C18.8313 25.5849 18.9852 25.2135 18.9852 24.8262V18.9847H24.8268C25.2141 18.9847 25.5856 18.8309 25.8595 18.557C26.1333 18.2831 26.2872 17.9117 26.2872 17.5244C26.2872 17.137 26.1333 16.7656 25.8595 16.4917C25.5856 16.2178 25.2141 16.064 24.8268 16.064Z" fill="white"/>
</svg>
