<svg width="54" height="40" viewBox="0 0 54 40" fill="none" xmlns="http://www.w3.org/2000/svg">
<path d="M12.2734 15.9519C11.6731 15.9519 11.097 16.0427 10.5236 16.1256C10.7093 15.5057 10.9005 14.8751 11.2074 14.3086C11.5142 13.4856 11.9934 12.7722 12.4699 12.0534C12.8683 11.2759 13.5709 10.7495 14.0878 10.0842C14.6289 9.43754 15.3665 9.00735 15.9506 8.47027C16.524 7.90915 17.2751 7.62859 17.8727 7.23313C18.4973 6.87775 19.041 6.48497 19.6225 6.29793L21.0735 5.70474L22.3495 5.17836L21.0439 0L19.4368 0.384768C18.9226 0.513025 18.2954 0.662657 17.582 0.841682C16.8525 0.975283 16.0745 1.34135 15.2076 1.67535C14.3516 2.05478 13.3609 2.31129 12.4403 2.92051C11.5142 3.50301 10.4455 3.98931 9.50333 4.76954C8.59074 5.57381 7.48972 6.27121 6.67674 7.29459C5.78838 8.25117 4.9108 9.25584 4.22972 10.3995C3.44097 11.4896 2.90527 12.6867 2.33995 13.8704C1.82847 15.0541 1.4166 16.2645 1.0801 17.4402C0.442098 19.7969 0.156747 22.0361 0.0463756 23.9519C-0.045152 25.8704 0.00868772 27.4656 0.121751 28.6199C0.162131 29.165 0.237507 29.6941 0.291347 30.0601L0.358646 30.509L0.428638 30.493C0.907437 32.713 2.00965 34.7531 3.60778 36.3772C5.2059 38.0014 7.23463 39.1433 9.45928 39.6709C11.6839 40.1984 14.0136 40.09 16.1788 39.3583C18.344 38.6265 20.2562 37.3013 21.6943 35.5358C23.1323 33.7704 24.0375 31.6369 24.305 29.3822C24.5725 27.1275 24.1914 24.8437 23.2059 22.795C22.2204 20.7463 20.6706 19.0163 18.7359 17.8053C16.8012 16.5943 14.5606 15.9518 12.2734 15.9519ZM41.8852 15.9519C41.2849 15.9519 40.7088 16.0427 40.1355 16.1256C40.3212 15.5057 40.5123 14.8751 40.8192 14.3086C41.1261 13.4856 41.6053 12.7722 42.0818 12.0534C42.4802 11.2759 43.1828 10.7495 43.6996 10.0842C44.2407 9.43754 44.9783 9.00735 45.5625 8.47027C46.1359 7.90915 46.887 7.62859 47.4846 7.23313C48.1091 6.87775 48.6529 6.48497 49.2344 6.29793L50.6853 5.70474L51.9613 5.17836L50.6557 0L49.0486 0.384768C48.5344 0.513025 47.9072 0.662657 47.1938 0.841682C46.4643 0.975283 45.6863 1.34135 44.8195 1.67535C43.9661 2.05745 42.9728 2.31129 42.0521 2.92318C41.1261 3.50568 40.0574 3.99198 39.1152 4.77221C38.2026 5.57649 37.1016 6.27388 36.2886 7.29459C35.4002 8.25117 34.5227 9.25584 33.8416 10.3995C33.0528 11.4896 32.5171 12.6867 31.9518 13.8704C31.4403 15.0541 31.0285 16.2645 30.692 17.4402C30.054 19.7969 29.7686 22.0361 29.6582 23.9519C29.5667 25.8704 29.6205 27.4656 29.7336 28.6199C29.774 29.165 29.8494 29.6941 29.9032 30.0601L29.9705 30.509L30.0405 30.493C30.5193 32.713 31.6215 34.7531 33.2196 36.3772C34.8178 38.0014 36.8465 39.1433 39.0711 39.6709C41.2958 40.1984 43.6255 40.09 45.7907 39.3583C47.9558 38.6265 49.8681 37.3013 51.3061 35.5358C52.7442 33.7704 53.6493 31.6369 53.9169 29.3822C54.1844 27.1275 53.8033 24.8437 52.8178 22.795C51.8322 20.7463 50.2825 19.0163 48.3478 17.8053C46.4131 16.5943 44.1725 15.9518 41.8852 15.9519Z" fill="#16367D"/>
</svg>
