<svg width="17" height="10" viewBox="0 0 17 10" fill="none" xmlns="http://www.w3.org/2000/svg">
<path d="M10.8182 9.46863C10.8182 8.99052 11.3141 8.27657 11.8161 7.67732C12.4616 6.90409 13.2329 6.22945 14.1172 5.71461C14.7802 5.32864 15.584 4.95814 16.2308 4.95814M16.2308 4.95814C15.584 4.95814 14.7795 4.58764 14.1172 4.20167C13.2329 3.68618 12.4616 3.01154 11.8161 2.2396C11.3141 1.63971 10.8182 0.924474 10.8182 0.447651M16.2308 4.95814L-0.00698861 4.95814" stroke="currentcolor" stroke-width="1.8042"/>
<path d="M10.8182 9.46863C10.8182 8.99052 11.3141 8.27657 11.8161 7.67732C12.4616 6.90409 13.2329 6.22945 14.1172 5.71461C14.7802 5.32864 15.584 4.95814 16.2308 4.95814M16.2308 4.95814C15.584 4.95814 14.7795 4.58764 14.1172 4.20167C13.2329 3.68618 12.4616 3.01154 11.8161 2.2396C11.3141 1.63971 10.8182 0.924474 10.8182 0.447651M16.2308 4.95814L-0.00698861 4.95814" stroke="currentcolor" stroke-width="1.8042"/>
</svg>
