<svg width="50" height="23" viewBox="0 0 50 23" fill="none" xmlns="http://www.w3.org/2000/svg">
<path d="M7.1552 20.8085L10.4247 22.8776C11.0234 23.2568 11.7561 22.6962 11.5985 21.9873L10.7319 18.0964L13.6232 15.475C14.1511 14.9969 13.8675 14.0901 13.1742 14.0324L9.36898 13.6944L7.88 10.0179C7.61214 9.35016 6.69826 9.35016 6.4304 10.0179L4.94141 13.6862L1.13622 14.0242C0.442934 14.0819 0.159317 14.9886 0.68716 15.4668L3.57847 18.0882L2.71187 21.9791C2.5543 22.688 3.28698 23.2485 3.88573 22.8693L7.1552 20.8085Z" fill="currentcolor"/>
<path d="M25 17.2692L30.0004 20.4337C30.9161 21.0137 32.0367 20.1563 31.7957 19.0721L30.4703 13.1213L34.8923 9.11211C35.6996 8.38088 35.2659 6.99404 34.2055 6.90579L28.3858 6.38888L26.1086 0.765909C25.6989 -0.255303 24.3012 -0.255303 23.8915 0.765909L21.6143 6.37627L15.7945 6.89318C14.7342 6.98144 14.3005 8.36827 15.1077 9.09951L19.5298 13.1087L18.2044 19.0595C17.9634 20.1437 19.0839 21.001 19.9997 20.4211L25 17.2692Z" fill="currentcolor"/>
<path d="M42.8449 20.8085L46.1144 22.8776C46.7131 23.2568 47.4458 22.6962 47.2882 21.9873L46.4216 18.0964L49.3129 15.475C49.8408 14.9969 49.5572 14.0901 48.8639 14.0324L45.0587 13.6944L43.5697 10.0179C43.3018 9.35016 42.388 9.35016 42.1201 10.0179L40.6311 13.6862L36.8259 14.0242C36.1326 14.0819 35.849 14.9886 36.3769 15.4668L39.2682 18.0882L38.4016 21.9791C38.244 22.688 38.9767 23.2485 39.5754 22.8693L42.8449 20.8085Z" fill="currentcolor"/>
</svg>
