<svg width="98" height="94" viewBox="0 0 98 94" fill="none" xmlns="http://www.w3.org/2000/svg">
<path fill-rule="evenodd" clip-rule="evenodd" d="M22.4814 18.9524C24.0495 28.3024 30.3697 35.022 36.5711 33.9698C42.7725 32.9177 46.5504 24.4763 44.9822 15.1263C43.414 5.77623 37.1176 -0.94337 30.8925 0.132722C24.6673 1.1849 20.9132 9.60233 22.4814 18.9524ZM40.0401 42.6742C29.253 48.5808 18.6085 61.6373 15.9949 71.8243C13.3337 82.2505 15.3533 93.5614 28.3501 93.9918C35.193 94.2071 44.3407 90.094 49.0214 90.094C53.7022 90.094 62.826 94.2071 69.669 93.9918C82.6657 93.5614 84.6853 82.2505 82.0242 71.8243C79.4106 61.6613 68.7898 48.6047 57.979 42.6742C50.8985 38.8242 47.0968 38.8242 40.0401 42.6742ZM96.8505 43.1525C94.1181 51.546 87.394 56.8786 81.8104 55.0373C76.2267 53.2199 73.922 44.9221 76.6544 36.5285C79.3868 28.135 86.1109 22.8263 91.6946 24.6437C97.2782 26.4611 99.5829 34.759 96.8505 43.1525ZM1.1448 43.1525C3.85346 51.546 10.5776 56.8786 16.1612 55.0373C21.7448 53.2199 24.0733 44.9221 21.3409 36.5285C18.6322 28.135 11.8844 22.8024 6.32451 24.6437C0.740882 26.4611 -1.58761 34.759 1.1448 43.1525ZM46.1702 82.6331H51.8489C53.4646 82.6331 54.7951 81.294 54.7951 79.6679V73.5939H60.8302C62.4459 73.5939 63.7764 72.2548 63.7764 70.6287V64.9134C63.7764 63.2874 62.4459 61.9482 60.8302 61.9482H54.7951V55.8743C54.7951 54.2482 53.4646 52.909 51.8489 52.909H46.1702C44.5545 52.909 43.2239 54.2482 43.2239 55.8743V61.9482H37.1889C35.5732 61.9482 34.2426 63.2874 34.2426 64.9134V70.6287C34.2426 72.2548 35.5732 73.5939 37.1889 73.5939H43.2239V79.6679C43.2002 81.294 44.5308 82.6331 46.1702 82.6331ZM75.5139 18.9524C73.9458 28.3024 67.6256 35.022 61.4242 33.9698C55.2228 32.9177 51.445 24.4763 53.0131 15.1263C54.5813 5.75231 60.9015 -0.94337 67.1029 0.108809C73.328 1.1849 77.0821 9.60233 75.5139 18.9524Z" fill="currentcolor"/>
</svg>
