<svg width="95" height="101" viewBox="0 0 95 101" fill="none" xmlns="http://www.w3.org/2000/svg">
<path d="M69.5091 6.48091V94.5112C69.5091 97.4743 67.095 99.8761 64.1165 99.8761H19.1722C16.1937 99.8761 13.7795 97.4743 13.7795 94.5112V6.48091C13.7795 3.51771 16.1937 1.11597 19.1722 1.11597H64.1165C67.095 1.11597 69.5091 3.51771 69.5091 6.48091Z" fill="white"/>
<path d="M64.6809 7.23728V30.202L18.6079 20.2675V7.23728C18.6079 6.51207 19.2036 5.91943 19.9326 5.91943H63.364C64.0852 5.91943 64.6809 6.51207 64.6809 7.23728Z" fill="#F5E7F5"/>
<path d="M18.6079 73.7222L64.6809 83.6567V93.7627C64.6809 94.4879 64.0852 95.0806 63.3562 95.0806H19.9248C19.1958 95.0806 18.6001 94.4879 18.6001 93.7627V73.7222H18.6079Z" fill="#F5E7F5"/>
<path d="M50.8542 6.54334H32.4344C32.0895 6.54334 31.8152 6.26262 31.8152 5.92731C31.8152 5.5842 32.0974 5.31128 32.4344 5.31128H50.8463C51.1912 5.31128 51.4656 5.592 51.4656 5.92731C51.4734 6.26262 51.1912 6.54334 50.8542 6.54334Z" fill="#B196B1"/>
<path d="M13.7796 43.8874C13.4347 43.8874 13.1604 43.6067 13.1604 43.2714V6.48097C13.1604 3.18247 15.8567 0.5 19.1723 0.5H64.1165C67.4321 0.5 70.1363 3.18247 70.1363 6.48097V20.4002C70.1363 20.7433 69.8541 21.0162 69.5171 21.0162C69.1722 21.0162 68.8978 20.7355 68.8978 20.4002V6.48097C68.8978 3.86868 66.758 1.73986 64.1244 1.73986H19.1723C16.5465 1.73986 14.4067 3.86868 14.4067 6.48097V43.2636C14.3988 43.6067 14.1245 43.8874 13.7796 43.8874Z" fill="#B196B1"/>
<path d="M64.1165 100.5H19.1723C15.8567 100.5 13.1604 97.8175 13.1604 94.519V89.9261C13.1604 89.583 13.4426 89.31 13.7796 89.31C14.1245 89.31 14.3988 89.5908 14.3988 89.9261V94.519C14.3988 97.1313 16.5387 99.2601 19.1645 99.2601H64.1165C66.7502 99.2601 68.89 97.1313 68.89 94.519V84.4442C68.89 84.1011 69.1722 83.8281 69.5092 83.8281C69.8541 83.8281 70.1284 84.1089 70.1284 84.4442V94.519C70.1284 97.8175 67.4321 100.5 64.1165 100.5Z" fill="#B196B1"/>
<path d="M69.5091 49.2912C69.1642 49.2912 68.8899 49.0105 68.8899 48.6752V39.3489C68.8899 39.0058 69.1721 38.7329 69.5091 38.7329C69.854 38.7329 70.1283 39.0136 70.1283 39.3489V48.6674C70.1283 49.0105 69.854 49.2912 69.5091 49.2912Z" fill="#C0B0C0"/>
<path d="M20.152 86.9317C31.2817 86.9317 40.304 77.9557 40.304 66.8833C40.304 55.8109 31.2817 46.835 20.152 46.835C9.02236 46.835 0 55.8109 0 66.8833C0 77.9557 9.02236 86.9317 20.152 86.9317Z" fill="currentcolor"/>
<path d="M94.2856 69.9244L72.8246 55.6543V63.5224H52.5237V76.3265H72.8246V84.1945L94.2856 69.9244Z" fill="#F5E7F5"/>
<path d="M28.5075 60.7775L24.1416 62.2279C23.5537 60.5046 22.3153 59.639 20.4106 59.639C18.3805 59.639 17.3694 60.294 17.3694 61.6041C17.3694 62.1265 17.5575 62.5632 17.9416 62.9297C18.3178 63.2884 19.18 63.6081 20.5125 63.8733C22.7464 64.3177 24.3767 64.7778 25.4114 65.2301C26.446 65.6902 27.3239 66.4232 28.0293 67.4369C28.7426 68.4506 29.0953 69.5891 29.0953 70.8446C29.0953 72.8096 28.335 74.5174 26.8144 75.9522C25.2938 77.387 23.0364 78.1044 20.0422 78.1044C17.8005 78.1044 15.888 77.5975 14.3125 76.5838C12.737 75.5701 11.6945 74.0573 11.1929 72.061L15.9428 70.9927C16.4758 73.028 17.9572 74.0417 20.3949 74.0417C21.5706 74.0417 22.4407 73.8156 23.0207 73.3633C23.6007 72.911 23.8829 72.3729 23.8829 71.7413C23.8829 71.1019 23.6243 70.6106 23.0991 70.2597C22.5739 69.9088 21.5706 69.5813 20.0736 69.2694C17.2832 68.6924 15.3001 67.9126 14.1165 66.9144C12.933 65.9163 12.3372 64.4659 12.3372 62.5476C12.3372 60.6137 13.0427 58.9762 14.4614 57.6506C15.8801 56.3249 17.8005 55.6543 20.2225 55.6543C24.5178 55.6543 27.2847 57.362 28.5075 60.7775Z" fill="white"/>
<path d="M68.9292 81.7695C68.8273 81.7695 68.7254 81.7461 68.6392 81.6993C68.4354 81.5902 68.3099 81.3796 68.3099 81.1535V73.2854C68.3099 72.9423 68.5921 72.6694 68.9292 72.6694C69.274 72.6694 69.5484 72.9501 69.5484 73.2854V79.9916L89.2615 66.8834L69.5562 53.7751V60.4813C69.5562 60.8244 69.274 61.0973 68.937 61.0973H48.6361C48.2912 61.0973 48.0168 60.8166 48.0168 60.4813C48.0168 60.1382 48.299 59.8653 48.6361 59.8653H68.3178V52.6132C68.3178 52.3871 68.4432 52.1766 68.647 52.0674C68.8508 51.9582 69.0938 51.9738 69.2897 52.0986L90.7507 66.3687C90.9232 66.4857 91.0251 66.6806 91.0251 66.8834C91.0251 67.0939 90.9232 67.2811 90.7507 67.398L69.2897 81.6681C69.1722 81.7383 69.0546 81.7695 68.9292 81.7695Z" fill="#B196B1"/>
<path d="M63.6697 73.9015H52.5238C52.1789 73.9015 51.9045 73.6208 51.9045 73.2855C51.9045 72.9424 52.1867 72.6694 52.5238 72.6694H63.6697C64.0146 72.6694 64.2889 72.9502 64.2889 73.2855C64.2889 73.6286 64.0146 73.9015 63.6697 73.9015Z" fill="#B196B1"/>
<path d="M32.4346 29.8746L53.8956 44.1447V36.2767H85.5227V23.4726H53.8956V15.6045L32.4346 29.8746Z" fill="currentcolor"/>
</svg>
