<svg width="100" height="101" viewBox="0 0 100 101" fill="none" xmlns="http://www.w3.org/2000/svg">
<g clip-path="url(#clip0_247_360)">
<path d="M98.7747 23.2511C97.4957 17.0427 94.0851 11.2873 89.2623 7.15727C84.4128 2.9473 78.1245 0.469287 71.703 0.176188C65.4413 -0.143556 59.1264 1.61504 53.9572 5.15887C49.0811 8.46289 45.2442 13.2857 43.1392 18.8013C42.8994 19.3875 42.7129 19.9737 42.553 20.5865C46.0968 14.1117 52.2519 9.10238 59.3129 6.94411C63.816 5.50526 68.6654 5.2921 73.3284 6.1181C74.7672 6.38456 76.1794 6.81088 77.5916 7.21056C77.5117 7.23721 77.4051 7.26385 77.3252 7.2905C78.1512 7.2905 78.8706 7.77011 79.6167 8.03657C82.7075 9.39548 85.5586 11.2873 87.9833 13.6054C92.8061 18.2151 96.0302 24.5034 96.7763 31.1381C97.2825 35.2148 96.8296 39.3715 95.6305 43.2884C99.0944 37.3198 100.16 30.019 98.7747 23.2511Z" fill="#C2A8C2"/>
<path d="M88.2759 77.1016C87.6897 72.5453 86.1176 68.0422 83.2932 64.3652C79.9626 59.9687 74.9799 56.8245 69.5442 55.8919C67.9455 55.6521 66.2669 55.5455 64.7481 54.9061C63.4158 54.0268 62.4566 52.6412 62.0835 51.0958C61.444 48.6178 61.8171 46.0332 62.1901 43.5551C62.2701 43.0755 62.1635 41.8232 62.4299 41.7965C66.6665 40.7574 70.9831 42.9956 75.2197 42.2495C78.3106 41.3969 79.7494 38.1728 80.7353 35.4017C77.6977 33.6697 74.5536 32.0443 71.8091 29.8328C70.0505 28.4739 69.9972 25.9959 68.5317 24.4238C67.759 23.3846 66.5067 22.7185 65.8672 21.6527C66.4001 17.8957 66.6932 13.9255 65.0145 10.3817C64.1352 12.1936 63.1494 13.9522 62.1102 15.6575C61.6572 13.6324 61.3108 11.5274 60.2184 9.74219C58.9127 13.1261 57.314 16.3769 55.6354 19.5743C52.9975 20.4003 51.3188 22.7451 49.5336 24.6636C46.123 28.4739 43.5384 33.35 43.2186 38.4925C42.0995 40.2245 40.8738 41.8498 39.808 43.6084C39.3817 44.3279 38.8488 44.9673 38.3958 45.6601C37.703 46.7526 37.2767 47.9516 36.7172 49.0974C36.051 50.4296 35.2783 51.7086 34.4523 52.9609C32.9868 55.1992 31.7345 57.5706 30.9351 60.1285C30.3489 62.0204 30.0825 63.9921 29.7894 65.9372C20.8898 75.1565 24.407 82.2175 24.407 82.2175C23.4211 81.4182 22.5951 80.4589 21.9823 79.3665C20.4369 76.7286 20.1704 73.5578 20.4369 70.5469C20.8365 66.2836 22.2221 62.0204 24.8866 58.6098C25.6061 57.7038 26.2988 56.7446 27.1248 55.9186C28.8568 54.0001 30.5088 51.9751 31.8677 49.7635C32.747 48.3247 33.5197 46.8059 33.8661 45.1539C34.0526 44.088 34.0793 42.9423 33.5197 41.9831C33.0668 41.4502 32.374 41.0505 31.6812 41.1571C30.9351 41.3169 30.5088 42.0364 30.2157 42.6758C29.4963 44.3012 28.9634 46.0332 28.0308 47.5519C26.965 49.2572 25.6327 50.7227 24.2205 52.1349C22.755 53.4939 21.3162 54.9327 20.0372 56.5048C18.8914 57.9436 18.0654 59.569 17.2661 61.221C15.0811 65.8839 14.042 71.1331 14.7348 76.2756C15.1877 79.6063 16.2002 82.9103 18.1454 85.6814C19.5842 88.1861 21.6892 90.2911 24.2471 91.6233C27.8176 93.5152 31.9476 94.0747 35.9444 93.8083C37.4099 93.9148 38.8754 94.1014 40.3676 94.1547C40.5807 95.6734 41.0604 97.1922 42.0729 98.3646C42.7124 99.1373 43.6183 99.6436 44.5509 99.99C46.0164 100.496 47.775 100.043 48.7609 98.8442C50.1464 97.1389 51.7451 95.407 53.9034 94.7942C56.035 94.208 58.22 94.8741 60.245 95.5136C64.0553 96.4195 67.9722 96.5794 71.8624 96.5527C77.9908 95.9932 83.7995 92.4493 86.8904 87.0936C88.569 84.0294 88.8355 80.4323 88.2759 77.1016ZM83.3465 82.4573C83.2932 83.8962 82.6537 85.2285 82.0143 86.4808C80.5754 89.2253 78.1773 91.4368 75.3263 92.6359C72.2887 93.9681 68.8781 94.2346 65.6007 93.8349C62.0835 93.5685 58.6729 92.2095 55.1291 92.5026C52.5978 92.6892 50.3596 94.1547 48.7342 96.0465C48.0947 96.8458 47.2421 97.512 46.2296 97.7784C45.8032 97.885 45.2437 97.9117 44.9239 97.5386C44.2312 96.7126 43.9381 95.5669 44.3377 94.5277C44.9239 92.929 46.3095 91.8099 47.6418 90.824C49.5069 89.4118 51.452 87.8664 53.8235 87.44C57.394 86.8005 61.0444 87.2269 64.6415 86.9338C67.2261 86.7739 69.8373 86.4808 72.342 85.7081C73.6743 85.2551 75.0065 84.6689 75.9924 83.6564C76.7918 82.857 77.2714 81.6846 77.1915 80.5389C76.2056 82.2975 74.5003 83.6031 72.5818 84.2426C70.7433 84.9087 68.7715 84.9887 66.8531 84.8554C63.4158 84.5623 60.0052 84.0561 56.5413 84.2692C55.8219 81.7379 55.9018 78.9402 56.9143 76.4888C57.7137 74.4105 59.0193 72.492 60.8578 71.213C62.1102 70.3337 63.5757 69.8275 65.0945 69.5876C65.8405 69.4544 66.5866 69.4811 67.3327 69.3478C64.7481 69.0547 62.0302 69.3212 59.7121 70.5469C57.4472 71.6926 55.7419 73.7976 54.836 76.1424C53.8768 78.4605 53.557 80.9919 53.5037 83.4965C51.2389 82.7238 46.3628 74.9967 45.6966 73.2647C45.2437 72.0657 45.0305 70.7867 45.0572 69.5077C45.0572 69.1613 45.0838 68.8149 45.1371 68.4685C45.1904 68.2021 45.2437 67.909 45.297 67.6425C45.3769 67.0297 45.4568 66.3103 45.5634 65.5908L45.7766 63.779C45.7766 63.7523 45.7766 63.7523 45.7766 63.7257C43.8315 62.42 41.6199 64.3385 39.5949 63.4059C38.3159 62.8997 37.8096 61.5141 37.1435 60.4216C37.9162 59.3025 38.529 58.0236 38.609 56.638C38.7689 54.6662 39.6215 52.8544 40.9271 51.3889C40.3409 49.8434 39.6482 48.3779 38.8488 46.9391C39.7281 47.019 40.634 47.099 41.4867 47.3388C42.1795 47.6852 42.9255 48.671 43.6716 47.8983C43.3519 46.9391 42.8189 46.0598 42.3127 45.2071C44.1246 45.447 45.4568 46.8592 47.2421 47.1256C49.9599 47.5786 52.358 49.1773 54.3031 51.0425C56.5147 53.2008 58.2466 55.812 59.4989 58.6631L59.5256 58.6364C59.6855 58.7163 59.872 58.7696 60.0318 58.8229C61.7105 59.3558 63.4691 59.4624 65.201 59.7555C68.4784 60.2618 71.7292 61.1944 74.5269 63.0329C76.9783 64.605 79.0033 66.8165 80.4955 69.2945C81.055 70.1738 81.3748 71.1864 81.7478 72.1722C83.0001 75.423 83.7196 78.9402 83.3465 82.4573Z" fill="currentcolor"/>
<path d="M15.428 16.4299C11.1114 18.6948 7.43436 22.0788 4.76982 26.1288C1.06612 31.6711 -0.559248 38.5456 0.160177 45.1803C0.240113 46.0063 0.373339 46.8323 0.559857 47.6583C1.59903 56.4779 10.8983 63.2991 13.8026 65.2442C14.3355 65.6705 14.6552 65.8571 14.6819 65.8038C9.24624 60.8744 5.88893 53.7601 5.43596 46.4593C5.08957 41.2368 6.20867 35.961 8.60675 31.3247C12.1772 24.3969 18.6787 18.9879 26.1927 16.8563C26.7789 16.6431 27.3917 16.5365 28.0312 16.5632C27.7914 16.5099 27.1253 16.6697 27.3384 16.2434L27.445 16.5099C30.9356 15.7105 34.5593 15.4174 38.1031 15.9237C39.1157 16.0036 40.1016 16.2701 41.0874 16.4299C41.1674 16.2168 41.2473 15.977 41.3272 15.7638C33.2271 11.9269 23.3416 12.1667 15.428 16.4299Z" fill="#C2A8C2"/>
</g>
<defs>
<clipPath id="clip0_247_360">
<rect width="99.3605" height="100" fill="white" transform="translate(0 0.149902)"/>
</clipPath>
</defs>
</svg>
