<svg width="303" height="378" viewBox="0 0 303 378" fill="none" xmlns="http://www.w3.org/2000/svg">
<path d="M3.85747 122.642C-10.6791 56.2814 31.4447 -7.84076 83.5423 1.34287L141.444 11.5497C147.873 12.683 154.389 12.683 160.818 11.5497L221.988 0.766826C277.534 1.34278 302.203 50.4246 302.203 119.514L292.324 169.8C289.656 183.385 289.294 197.575 291.264 211.365L298.723 263.557C308.036 328.73 265.288 386.288 215.463 375.662L156.077 362.997C147.167 361.097 138.066 361.389 129.237 363.858L88.0938 375.366C33.5856 390.611 -13.2316 323.07 3.41183 253.2L12.0101 217.104C16.2711 199.216 16.4391 180.078 12.4935 162.065L3.85747 122.642Z" fill="#FBFBFB"/>
<path d="M293.434 124.47L294.416 124.661L293.247 130.662L292.266 130.471L291.097 136.472L292.079 136.663L290.91 142.665L289.928 142.473L288.76 148.475L289.741 148.666L288.573 154.667L287.591 154.476L286.423 160.477L287.404 160.668L286.236 166.669L285.254 166.478L284.67 169.479C284.456 170.574 284.258 171.674 284.076 172.777L285.063 172.94C284.702 175.122 284.402 177.319 284.163 179.524L283.169 179.417C282.929 181.635 282.75 183.863 282.633 186.096L283.631 186.148C283.515 188.359 283.459 190.575 283.465 192.792L282.465 192.794C282.47 195.028 282.537 197.262 282.665 199.492L283.664 199.434C283.791 201.647 283.979 203.855 284.228 206.056L283.234 206.168C283.36 207.278 283.501 208.387 283.658 209.492L284.099 212.606L285.089 212.466L285.971 218.695L284.981 218.835L285.864 225.064L286.854 224.923L287.736 231.152L286.746 231.292L287.628 237.521L288.618 237.38L289.501 243.609L288.51 243.749L289.393 249.978L290.383 249.838L291.265 256.066L290.275 256.206L290.716 259.321C290.855 260.301 290.982 261.279 291.096 262.255L292.089 262.139C292.321 264.121 292.504 266.095 292.638 268.059L291.64 268.127C291.775 270.102 291.861 272.067 291.899 274.018L292.898 273.999C292.937 275.994 292.926 277.977 292.867 279.944L291.868 279.914C291.808 281.892 291.7 283.855 291.544 285.801L292.541 285.88C292.382 287.87 292.174 289.841 291.918 291.792L290.926 291.662C290.669 293.624 290.363 295.565 290.011 297.483L290.994 297.663C290.633 299.626 290.224 301.565 289.768 303.478L288.795 303.246C288.336 305.173 287.829 307.072 287.276 308.942L288.235 309.226C287.668 311.143 287.053 313.029 286.392 314.882L285.45 314.547C284.785 316.412 284.073 318.243 283.316 320.037L284.237 320.426C283.46 322.268 282.636 324.072 281.768 325.834L280.871 325.392C279.996 327.167 279.075 328.899 278.111 330.586L278.979 331.082C277.987 332.818 276.949 334.507 275.868 336.144L275.033 335.593C273.941 337.247 272.805 338.847 271.628 340.391L272.423 340.997C271.208 342.589 269.95 344.123 268.65 345.593L267.901 344.931C266.592 346.411 265.242 347.826 263.853 349.173L264.549 349.891C263.112 351.285 261.632 352.607 260.114 353.853L259.479 353.08C257.955 354.331 256.392 355.504 254.793 356.594L255.356 357.42C253.707 358.544 252.02 359.583 250.297 360.531L249.815 359.655C248.096 360.602 246.343 361.456 244.559 362.213L244.95 363.134C243.12 363.911 241.257 364.589 239.364 365.162L239.075 364.204C237.213 364.768 235.323 365.229 233.409 365.581L233.59 366.564C231.65 366.922 229.683 367.17 227.696 367.305L227.628 366.307C225.703 366.437 223.757 366.459 221.794 366.367L221.747 367.366C219.796 367.274 217.827 367.073 215.845 366.758L216.002 365.77C215.045 365.618 214.085 365.438 213.121 365.231L210.311 364.626L210.101 365.604L204.48 364.395L204.691 363.417L199.071 362.208L198.86 363.186L193.24 361.976L193.45 360.999L187.83 359.79L187.62 360.767L181.999 359.558L182.21 358.581L176.59 357.371L176.379 358.349L170.759 357.14L170.969 356.162L165.349 354.953L165.139 355.931L159.519 354.722L159.729 353.744L156.919 353.14C155.85 352.91 154.778 352.713 153.704 352.549L153.553 353.537C151.43 353.213 149.298 353.02 147.166 352.958L147.195 351.959C145.016 351.896 142.836 351.967 140.662 352.173L140.756 353.168C138.636 353.369 136.522 353.699 134.42 354.16L134.206 353.183C133.146 353.415 132.089 353.68 131.037 353.977L127.792 354.892L128.063 355.855L121.574 357.686L121.302 356.723L114.813 358.554L115.084 359.517L108.595 361.348L108.323 360.385L101.833 362.217L102.105 363.179L95.6154 365.01L95.3439 364.048L92.0991 364.963C91.1341 365.235 90.1721 365.479 89.2132 365.696L89.4334 366.671C87.4437 367.12 85.4665 367.452 83.5049 367.672L83.3935 366.679C81.4105 366.901 79.4444 367.006 77.4983 367L77.4949 368C75.4691 367.993 73.464 367.867 71.4832 367.627L71.6033 366.635C69.6418 366.397 67.7042 366.046 65.794 365.586L65.5599 366.558C63.6086 366.088 61.6858 365.507 59.7953 364.82L60.1368 363.88C58.2919 363.21 56.4773 362.437 54.6968 361.565L54.2572 362.464C52.4651 361.587 50.7079 360.613 48.9889 359.547L49.5159 358.697C47.8488 357.663 46.2175 356.541 44.6252 355.335L44.0214 356.132C42.4367 354.932 40.8911 353.65 39.3877 352.292L40.058 351.55C38.6033 350.236 37.1881 348.849 35.8152 347.393L35.0876 348.079C33.7234 346.632 32.4012 345.119 31.1239 343.543L31.9007 342.913C30.6628 341.386 29.4671 339.799 28.3162 338.155L27.4971 338.729C26.3551 337.098 25.2572 335.413 24.206 333.677L25.0613 333.159C24.042 331.477 23.0668 329.746 22.1381 327.97L21.252 328.433C20.3297 326.67 19.4531 324.863 18.6242 323.016L19.5366 322.607C18.7293 320.808 17.9677 318.97 17.2539 317.096L16.3194 317.452C15.6101 315.59 14.9477 313.693 14.3343 311.765L15.2872 311.462C14.6885 309.58 14.1367 307.667 13.6341 305.726L12.666 305.977C12.1659 304.046 11.714 302.089 11.3121 300.107L12.2922 299.908C11.8992 297.97 11.5544 296.008 11.2597 294.026L10.2706 294.173C9.97715 292.199 9.7329 290.205 9.53955 288.193L10.535 288.098C10.3457 286.128 10.2056 284.141 10.1164 282.14L9.11738 282.184C9.02851 280.191 8.98965 278.182 9.0024 276.161L10.0024 276.168C10.0149 274.189 10.0773 272.198 10.1911 270.198L9.19273 270.141C9.30611 268.149 9.47009 266.147 9.68617 264.138L10.6804 264.245C10.892 262.277 11.1539 260.303 11.4676 258.324L10.48 258.167C10.7922 256.197 11.1554 254.222 11.5707 252.244L12.5494 252.449C12.7541 251.474 12.9716 250.498 13.2021 249.522L13.8802 246.651L12.907 246.421L14.2632 240.677L15.2365 240.907L16.5927 235.163L15.6194 234.934L16.9756 229.19L17.9489 229.42L19.3051 223.676L18.3319 223.446L19.6881 217.703L20.6613 217.933L21.3394 215.061C21.595 213.978 21.8352 212.891 22.0599 211.8L21.0805 211.598C21.525 209.439 21.9086 207.264 22.2312 205.077L23.2205 205.223C23.545 203.023 23.8084 200.812 24.0106 198.593L23.0147 198.502C23.2149 196.305 23.3547 194.101 23.434 191.894L24.4333 191.93C24.5132 189.706 24.5323 187.479 24.4904 185.254L23.4906 185.273C23.4491 183.065 23.3472 180.859 23.1848 178.658L24.1821 178.585C24.0182 176.363 23.7932 174.148 23.5071 171.942L22.5154 172.071C22.2311 169.879 21.8859 167.697 21.4798 165.531L22.4627 165.346C22.2575 164.251 22.0369 163.16 21.8008 162.073L21.1198 158.936L20.1425 159.149L18.7804 152.876L19.7576 152.663L18.3954 146.39L17.4182 146.603L16.0561 140.329L17.0333 140.117L15.6711 133.844L14.6939 134.056L13.3317 127.783L14.309 127.571L13.6279 124.435C13.4089 123.426 13.2037 122.419 13.012 121.412L12.0296 121.599C11.6404 119.555 11.3065 117.514 11.0262 115.48L12.0169 115.343C11.7354 113.299 11.5086 111.261 11.3349 109.232L10.3385 109.317C10.1612 107.244 10.0388 105.18 9.96966 103.127L10.9691 103.094C10.8997 101.032 10.8845 98.9819 10.9218 96.9453L9.92197 96.9269C9.96006 94.8474 10.0525 92.782 10.1974 90.7332L11.1949 90.8037C11.3405 88.7467 11.5395 86.7066 11.7901 84.6864L10.7977 84.5632C11.0539 82.4985 11.3635 80.4542 11.7248 78.4331L12.7092 78.6091C13.0725 76.5765 13.4885 74.5678 13.9552 72.5859L12.9819 72.3567C13.4594 70.3288 13.9896 68.3287 14.5704 66.3593L15.5295 66.6422C16.1136 64.6616 16.7493 62.7128 17.4344 60.7989L16.4929 60.4619C17.1953 58.4999 17.9492 56.574 18.7525 54.6876L19.6726 55.0794C20.4812 53.1805 21.3401 51.3226 22.247 49.5089L21.3526 49.0617C22.2853 47.1963 23.2685 45.3771 24.2997 43.6076L25.1637 44.1111C26.2044 42.3253 27.2942 40.5913 28.4304 38.9131L27.6024 38.3525C28.7731 36.6233 29.9929 34.9522 31.259 33.3434L32.0448 33.9618C33.3199 32.3417 34.6419 30.7862 36.0079 29.2997L35.2716 28.623C36.6852 27.0847 38.146 25.6186 39.6507 24.2296L40.329 24.9645C41.8423 23.5676 43.4 22.2505 44.9985 21.018L44.3879 20.2261C46.038 18.9539 47.732 17.7698 49.4664 16.6793L49.9987 17.5258C51.7339 16.4348 53.5091 15.4395 55.3207 14.5453L54.8781 13.6486C56.7399 12.7295 58.6405 11.9149 60.5763 11.2103L60.9183 12.15C62.8272 11.4553 64.7701 10.8699 66.7433 10.3995L66.5114 9.42677C68.5151 8.94907 70.5502 8.5875 72.6128 8.34789L72.7282 9.34121C74.7278 9.10891 76.754 8.99346 78.8033 9.00042L78.8066 8.00042C80.8446 8.00734 82.9046 8.13301 84.9835 8.38264L84.8642 9.37551C85.8676 9.496 86.8756 9.64594 87.888 9.82596L90.6279 10.3132L90.803 9.32864L96.2827 10.3031L96.1076 11.2876L101.587 12.2621L101.762 11.2776L107.242 12.252L107.067 13.2366L112.547 14.211L112.722 13.2265L118.202 14.2009L118.027 15.1855L123.506 16.1599L123.681 15.1754L129.161 16.1498L128.986 17.1344L134.466 18.1088L134.641 17.1243L140.121 18.0987L139.946 19.0833L142.686 19.5705C143.457 19.7078 144.231 19.828 145.005 19.9311L145.137 18.9398C146.663 19.1431 148.194 19.2786 149.725 19.3465L149.681 20.3455C151.245 20.4148 152.811 20.4148 154.376 20.3455L154.331 19.3465C155.863 19.2786 157.393 19.1431 158.92 18.9398L159.052 19.9311C159.826 19.828 160.599 19.7078 161.371 19.5705L164.265 19.0558L164.09 18.0712L169.879 17.0418L170.054 18.0264L175.843 16.9969L175.668 16.0123L181.457 14.9829L181.633 15.9674L187.422 14.938L187.246 13.9534L193.035 12.924L193.211 13.9085L199 12.8791L198.824 11.8945L204.613 10.8651L204.789 11.8496L210.578 10.8202L210.402 9.83564L216.191 8.80618L216.367 9.79074L219.169 9.29243C220.126 9.30346 221.073 9.33002 222.01 9.37194L222.055 8.37294C224.056 8.46246 226.013 8.62123 227.926 8.84764L227.809 9.84071C229.772 10.073 231.687 10.3773 233.555 10.7517L233.752 9.77124C235.714 10.1644 237.625 10.6339 239.487 11.1778L239.206 12.1377C241.088 12.6875 242.918 13.3143 244.695 14.0158L245.062 13.0856C246.91 13.8145 248.702 14.6231 250.441 15.509L249.987 16.4C251.72 17.2828 253.399 18.2437 255.023 19.2804L255.561 18.4374C257.221 19.4962 258.825 20.6329 260.375 21.8448L259.759 22.6325C261.278 23.8209 262.745 25.0833 264.159 26.4175L264.846 25.6901C266.268 27.0322 267.638 28.4453 268.956 29.9271L268.209 30.5917C269.484 32.026 270.711 33.5263 271.889 35.0908L272.687 34.4893C273.858 36.0434 274.98 37.6591 276.054 39.3342L275.213 39.8742C276.25 41.4915 277.244 43.1659 278.193 44.8954L279.07 44.4142C280.003 46.1133 280.893 47.8642 281.741 49.6651L280.837 50.0912C281.655 51.8288 282.434 53.6142 283.175 55.4459L284.102 55.0711C284.83 56.8715 285.52 58.7153 286.173 60.6011L285.228 60.9283C285.859 62.75 286.455 64.6117 287.016 66.5123L287.975 66.229C288.524 68.0887 289.041 69.9846 289.524 71.9155L288.554 72.1584C289.023 74.0285 289.46 75.932 289.867 77.868L290.846 77.6622C291.246 79.5633 291.616 81.4948 291.957 83.4557L290.972 83.6271C291.303 85.5315 291.607 87.4642 291.883 89.4242L292.874 89.2846C293.145 91.2108 293.39 93.1628 293.609 95.1397L292.616 95.2498C292.829 97.175 293.017 99.1241 293.181 101.096L294.177 101.014C294.339 102.954 294.476 104.917 294.589 106.901L293.591 106.958C293.702 108.895 293.79 110.852 293.856 112.829L294.855 112.796C294.92 114.744 294.963 116.711 294.984 118.696L293.984 118.707C293.994 119.655 294 120.608 294 121.564L293.434 124.47Z" fill="#FBFBFB" stroke="#DAC1DC" stroke-width="2" stroke-dasharray="6 6"/>
</svg>
