<svg viewBox="0 0 428 404" fill="none" xmlns="http://www.w3.org/2000/svg" x="0px" y="0px" preserveAspectRatio="none">
<path class="animation-dashed" fill-rule="evenodd" clip-rule="evenodd" d="M70.7473 386.784C31.8952 362.377 18.0277 314.364 6.08828 272.58C-4.29989 236.225 7.70308 201.748 7.40319 165.101C7.05657 122.745 -4.6325 94.0255 19.1187 60.6859C42.7877 27.4618 79.6846 5.04077 123.459 2.19274C162.785 -0.365824 200.817 15.4528 240.354 25.0435C284.903 35.85 335.235 31.6814 370.344 62.0813C406.391 93.2936 423.686 141.532 425.706 185.534C427.615 227.099 398.711 258.93 381.038 294.938C363.966 329.72 358.395 373.981 323.78 393.2C289.196 412.402 242.886 396.02 200.896 394.955C156.728 393.835 109.554 411.161 70.7473 386.784Z" stroke="currentcolor" stroke-width="3" stroke-dasharray="9 9"/>
</svg>
