<svg viewBox="0 0 126 118" fill="none" xmlns="http://www.w3.org/2000/svg" preserveAspectRatio="none">
<path d="M1.59541 38.3554C-4.4184 17.6207 13.0083 -2.4148 34.5612 0.454689L58.5153 3.64389C61.1751 3.998 63.8707 3.998 66.5304 3.64389L91.8365 0.274701C113.035 -2.54759 130.366 16.83 125.022 37.3781L120.935 53.0905C119.831 57.3353 119.681 61.769 120.496 66.0776L123.582 82.3855C127.435 102.749 109.75 120.734 89.1371 117.414L64.5688 113.456C60.8828 112.863 57.1177 112.954 53.4653 113.725L36.4442 117.321C13.894 122.084 -5.47438 100.981 1.41104 79.1494L4.96817 67.8708C6.73094 62.2816 6.80047 56.3018 5.16813 50.6737L1.59541 38.3554Z" fill="currentcolor"/>
</svg>
