<svg width="66" height="15" viewBox="0 0 66 15" fill="none" xmlns="http://www.w3.org/2000/svg">
<path d="M1.08152 6.30099C0.250614 4.91437 1.30902 3.87392 3.10065 4.40791C5.83693 5.11499 8.21918 6.75156 10.2593 8.05115C12.8452 9.7936 14.4089 10.7659 16.1556 10.6402C17.9023 10.5145 18.2197 9.4068 18.5898 7.4516C19.025 5.37119 19.5171 2.684 23.6823 2.38423C27.8475 2.08446 31.2845 4.42859 34.1757 6.32987C36.7616 8.07232 38.3253 9.04459 40.072 8.91888C41.8187 8.79317 42.1361 7.68551 42.5062 5.73032C42.9414 3.6499 43.4335 0.962721 47.5987 0.662947C51.7639 0.363173 55.0991 2.65437 57.9578 4.61825C59.8636 5.92751 61.2237 6.7939 62.5063 7.0632C63.4184 7.29889 64.3713 7.95352 64.7867 8.64683C65.6176 10.0334 64.5592 11.0739 62.7676 10.5399C60.0313 9.83282 57.6491 8.19625 55.6089 6.89666C53.0231 5.15421 51.4593 4.18194 49.7126 4.30765C47.9659 4.43336 47.6486 5.54102 47.2785 7.49621C46.8433 9.57663 46.3511 12.2638 42.1859 12.5636C38.0207 12.8634 34.5838 10.5192 31.6925 8.61795C29.1067 6.87549 27.543 5.90322 25.7963 6.02893C24.0496 6.15465 23.7322 7.2623 23.3621 9.21749C22.9269 11.2979 22.4348 13.9851 18.2695 14.2849C14.1043 14.5846 10.6674 12.2405 7.77612 10.3392C5.87033 9.02997 4.51022 8.16358 3.2276 7.89429C2.31551 7.6586 1.46441 7.05691 1.08152 6.30099Z" fill="#37569C"/>
</svg>
