<svg width="377" height="520" viewBox="0 0 377 520" fill="none" xmlns="http://www.w3.org/2000/svg">
<path d="M280.868 520L96.0947 520C80.7465 520 66.2311 516.203 53.3814 509.494C15.3082 489.62 -5.39406 445.063 1.5067 400.506L8.76439 353.291C12.4527 329.62 12.4528 195.57 9.00237 172.025L1.14978 118.354C-4.20426 81.2658 9.35934 43.6709 37.4383 20.8861C53.7384 7.84809 74.0837 -1.32409e-05 96.0947 -1.22788e-05L280.869 -4.20206e-06C296.217 -3.53117e-06 310.732 3.79747 323.582 10.5063C361.655 30.3797 382.357 74.9367 375.575 119.494L368.318 166.709C364.629 190.38 364.629 324.43 368.08 347.975L375.813 401.646C381.286 438.734 367.604 476.329 339.525 499.114C323.225 512.279 302.999 520 280.868 520Z" fill="#393232"/>
</svg>
