<svg viewBox="0 0 399 538" fill="none" xmlns="http://www.w3.org/2000/svg" x="0px" y="0px" preserveAspectRatio="none">
<path class="animation-dashed" d="M2.38438 414.494L2.38423 414.495C2.16676 415.868 1.97535 417.241 1.80977 418.613L1.01552 418.517C0.679303 421.303 0.448681 424.086 0.32127 426.861L1.12043 426.897C0.992749 429.678 0.969494 432.451 1.04823 435.209L0.248547 435.232C0.328503 438.033 0.512951 440.82 0.799297 443.586L1.59504 443.504C1.88139 446.27 2.27043 449.015 2.75953 451.733L1.97218 451.875C2.46794 454.63 3.06581 457.358 3.76313 460.053L4.53764 459.853C5.23371 462.542 6.02961 465.198 6.92265 467.814L6.16557 468.072C7.06932 470.72 8.07185 473.326 9.17048 475.886L9.90565 475.571C11.0003 478.121 12.1911 480.625 13.4751 483.075L12.7666 483.446C14.0639 485.921 15.4559 488.342 16.9397 490.703L17.617 490.277C19.0922 492.624 20.6588 494.911 22.3139 497.13L21.6726 497.608C23.3412 499.846 25.0993 502.016 26.944 504.112L27.5446 503.583C29.3726 505.66 31.2864 507.664 33.283 509.588L32.7279 510.164C34.7339 512.097 36.8231 513.95 38.9927 515.717L39.4979 515.096C41.6379 516.839 43.8568 518.497 46.1517 520.064L45.7006 520.725C47.995 522.292 50.365 523.768 52.8078 525.148L53.2014 524.452C54.4031 525.131 55.6226 525.786 56.8596 526.417C58.0101 527.005 59.1733 527.57 60.3486 528.113L60.013 528.84C62.3729 529.93 64.7815 530.932 67.2345 531.839L67.5122 531.089C69.9285 531.983 72.3881 532.786 74.8869 533.492L74.6693 534.262C77.1661 534.968 79.7019 535.579 82.2723 536.091L82.4285 535.306C84.9498 535.808 87.5048 536.214 90.0895 536.519L89.9957 537.313C92.5664 537.617 95.1662 537.822 97.7914 537.924L97.8225 537.124C99.1096 537.175 100.403 537.2 101.702 537.2L105.776 537.2L105.776 538L113.924 538L113.924 537.2L122.072 537.2L122.072 538L130.22 538L130.22 537.2L138.369 537.2L138.369 538L146.517 538L146.517 537.2L154.665 537.2L154.665 538L162.813 538L162.813 537.2L170.961 537.2L170.961 538L179.11 538L179.11 537.2L187.258 537.2L187.258 538L195.406 538L195.406 537.2L203.554 537.2L203.554 538L211.702 538L211.702 537.2L219.85 537.2L219.85 538L227.999 538L227.999 537.2L236.147 537.2L236.147 538L244.295 538L244.295 537.2L252.443 537.2L252.443 538L260.591 538L260.591 537.2L268.74 537.2L268.74 538L276.888 538L276.888 537.2L285.036 537.2L285.036 538L293.184 538L293.184 537.2L297.258 537.2C298.65 537.2 300.035 537.172 301.411 537.115L301.444 537.915C304.258 537.799 307.04 537.568 309.787 537.226L309.688 536.432C312.456 536.087 315.187 535.628 317.877 535.06L318.043 535.842C320.789 535.262 323.493 534.568 326.152 533.766L325.921 533C328.582 532.197 331.196 531.284 333.761 530.266L334.056 531.009C336.656 529.977 339.205 528.837 341.699 527.595L341.342 526.879C343.823 525.643 346.248 524.305 348.614 522.869L349.029 523.553C351.415 522.105 353.74 520.558 356 518.918L355.53 518.271C356.65 517.458 357.753 516.622 358.84 515.764C359.888 514.933 360.917 514.083 361.926 513.214L362.448 513.82C364.494 512.059 366.462 510.222 368.348 508.316L367.78 507.753C369.662 505.852 371.463 503.881 373.181 501.845L373.793 502.362C375.531 500.303 377.185 498.18 378.753 495.998L378.103 495.531C379.662 493.362 381.136 491.135 382.522 488.854L383.206 489.27C384.603 486.971 385.912 484.619 387.131 482.22L386.418 481.858C387.627 479.479 388.747 477.054 389.776 474.587L390.514 474.895C391.549 472.415 392.492 469.895 393.343 467.339L392.584 467.086C393.425 464.556 394.175 461.992 394.831 459.398L395.607 459.594C396.265 456.991 396.83 454.36 397.299 451.705L396.511 451.566C396.975 448.942 397.345 446.295 397.618 443.632L398.414 443.713C398.689 441.045 398.867 438.36 398.949 435.663L398.149 435.639C398.23 432.978 398.215 430.306 398.103 427.628L398.902 427.594C398.79 424.916 398.581 422.233 398.274 419.549L397.479 419.64C397.328 418.316 397.152 416.992 396.953 415.668L396.952 415.665L396.441 412.195L397.232 412.078L396.209 405.137L395.418 405.254L394.394 398.313L395.186 398.196L394.163 391.255L393.371 391.372L392.348 384.43L393.14 384.314L392.117 377.373L391.325 377.489L390.302 370.548L391.093 370.432L390.07 363.491L389.279 363.607L388.768 360.139L2.38438 414.494ZM2.38438 414.494L3.02449 410.423L2.2342 410.299L3.51442 402.158L4.3047 402.282L5.58488 394.14L4.7946 394.016L6.07481 385.874L6.8651 385.999L8.14531 377.857L7.35502 377.733L8.63521 369.591L9.42549 369.715L10.0654 365.646C10.2374 364.567 10.401 363.276 10.5564 361.796L9.76076 361.712C9.99049 359.524 10.2041 356.904 10.4016 353.911L11.1998 353.963C11.358 351.567 11.5058 348.934 11.6432 346.096L10.8442 346.057C10.9627 343.609 11.0736 341.008 11.1769 338.273L11.9763 338.303C12.0711 335.795 12.1594 333.174 12.2413 330.457L11.4417 330.433C11.5181 327.9 11.5889 325.283 11.6542 322.594L12.454 322.613C12.5158 320.07 12.5726 317.463 12.6245 314.803L11.8246 314.787C11.8745 312.228 11.9198 309.619 11.9606 306.969L12.7606 306.982C12.8002 304.408 12.8355 301.797 12.8665 299.156L12.0666 299.147C12.097 296.563 12.1232 293.952 12.1453 291.321L12.9453 291.328C12.9672 288.735 12.985 286.123 12.9989 283.5L12.1989 283.496C12.2126 280.896 12.2225 278.284 12.2284 275.669L13.0284 275.671C13.0344 273.063 13.0365 270.451 13.0347 267.842L12.2346 267.843C12.2328 265.228 12.2272 262.616 12.2176 260.016L13.0176 260.014C13.008 257.39 12.9943 254.778 12.9768 252.185L12.1768 252.19C12.159 249.559 12.1372 246.948 12.1113 244.365L12.9112 244.357C12.8848 241.716 12.8541 239.105 12.8191 236.531L12.0192 236.542C11.9833 233.892 11.9428 231.283 11.8979 228.723L12.6978 228.709C12.6512 226.048 12.5997 223.441 12.5434 220.898L11.7436 220.916C11.6841 218.228 11.6193 215.611 11.549 213.079L12.3487 213.057C12.2733 210.339 12.1918 207.718 12.104 205.209L11.3045 205.237C11.2089 202.501 11.1058 199.898 10.9955 197.45L11.7947 197.414C11.6668 194.576 11.529 191.943 11.3814 189.547L10.5829 189.596C10.3983 186.6 10.1984 183.978 9.98318 181.791L10.7793 181.713C10.6334 180.23 10.4799 178.939 10.3184 177.862L9.79894 174.391L9.00774 174.509L7.9689 167.568L8.76009 167.45L7.72125 160.509L6.93005 160.627L5.8912 153.686L6.6824 153.568L5.64355 146.627L4.85235 146.745L3.8135 139.804L4.60467 139.686L3.56582 132.745L2.77465 132.863L1.7358 125.922L2.52697 125.803L2.00778 122.334L2.38438 414.494ZM389.103 356.209C388.888 354.022 388.688 351.4 388.503 348.404L387.705 348.453C387.557 346.057 387.419 343.424 387.291 340.586L388.09 340.55C387.98 338.102 387.877 335.499 387.781 332.763L386.982 332.791C386.894 330.282 386.813 327.661 386.737 324.943L387.537 324.921C387.467 322.389 387.402 319.772 387.342 317.084L386.543 317.102C386.486 314.559 386.435 311.952 386.388 309.291L387.188 309.277C387.143 306.717 387.103 304.108 387.067 301.458L386.267 301.469C386.232 298.895 386.201 296.284 386.175 293.643L386.975 293.635C386.949 291.052 386.927 288.441 386.909 285.81L386.109 285.815C386.092 283.222 386.078 280.61 386.068 277.986L386.868 277.983C386.859 275.383 386.853 272.772 386.851 270.157L386.051 270.158C386.049 267.549 386.052 264.937 386.057 262.329L386.857 262.331C386.863 259.716 386.873 257.104 386.887 254.505L386.087 254.5C386.101 251.877 386.119 249.265 386.141 246.672L386.941 246.679C386.963 244.048 386.989 241.437 387.019 238.853L386.219 238.844C386.25 236.203 386.286 233.592 386.325 231.018L387.125 231.031C387.166 228.381 387.211 225.772 387.261 223.213L386.461 223.197C386.513 220.537 386.57 217.93 386.632 215.387L387.432 215.406C387.497 212.717 387.568 210.1 387.644 207.567L386.845 207.543C386.927 204.826 387.015 202.205 387.11 199.697L387.909 199.727C388.012 196.992 388.123 194.391 388.242 191.943L387.443 191.904C387.58 189.066 387.728 186.433 387.886 184.037L388.684 184.089C388.882 181.096 389.095 178.476 389.325 176.288L388.53 176.204C388.685 174.724 388.848 173.434 389.021 172.354C389.021 172.354 389.021 172.354 389.021 172.354L389.66 168.284L390.451 168.409L391.731 160.267L390.941 160.143L392.221 152.001L393.011 152.126L394.291 143.984L393.501 143.86L394.781 135.718L395.572 135.842L396.852 127.701L396.061 127.577L396.701 123.507C396.701 123.507 396.701 123.507 396.701 123.506C396.915 122.133 397.103 120.76 397.265 119.387L398.06 119.481C398.389 116.694 398.613 113.91 398.734 111.135L397.934 111.1C398.056 108.318 398.073 105.545 397.989 102.786L398.788 102.762C398.702 99.9604 398.513 97.1739 398.221 94.4079L397.426 94.4917C397.135 91.7258 396.741 88.9807 396.248 86.2624L397.035 86.1195C396.535 83.3646 395.933 80.6371 395.232 77.943L394.458 78.1444C393.759 75.4553 392.96 72.7998 392.064 70.1843L392.821 69.9251C391.914 67.2784 390.909 64.6722 389.809 62.113L389.074 62.4291C387.977 59.879 386.784 57.3759 385.499 54.9263L386.207 54.5546C384.908 52.0796 383.515 49.6587 382.03 47.2984L381.353 47.7244C379.876 45.3777 378.309 43.0915 376.653 40.8723L377.294 40.3939C375.625 38.1565 373.866 35.9866 372.021 33.8907L371.42 34.4193C369.592 32.3422 367.677 30.3384 365.68 28.4145L366.236 27.8383C364.229 25.9052 362.14 24.052 359.97 22.285L359.464 22.9053C357.324 21.1623 355.105 19.504 352.81 17.9367L353.261 17.2761C350.966 15.7091 348.596 14.2323 346.153 12.8519L345.759 13.5485C344.557 12.8694 343.338 12.2139 342.1 11.5826L342.1 11.5826C340.95 10.9954 339.787 10.4299 338.611 9.88676L338.947 9.16056C336.587 8.06998 334.178 7.06856 331.725 6.16078L331.448 6.91106C329.032 6.01686 326.572 5.21429 324.073 4.5077L324.291 3.73788C321.794 3.03183 319.258 2.42083 316.688 1.90915L316.532 2.69376C314.01 2.19187 311.455 1.78632 308.871 1.48122L308.964 0.686738C306.394 0.383303 303.794 0.178431 301.169 0.0760999L301.138 0.875493C299.85 0.825321 298.557 0.799996 297.258 0.799996L293.184 0.799995L293.184 -4.62536e-06L285.036 -4.98153e-06L285.036 0.799995L276.888 0.799995L276.888 -5.3377e-06L268.74 -5.69386e-06L268.74 0.799994L260.591 0.799994L260.591 -6.05003e-06L252.443 -6.4062e-06L252.443 0.799994L244.295 0.799993L244.295 -6.76237e-06L236.147 -7.11854e-06L236.147 0.799993L227.999 0.799993L227.999 -7.47471e-06L219.85 -7.83087e-06L219.85 0.799992L211.702 0.799992L211.702 -8.18704e-06L203.554 -8.54321e-06L203.554 0.799991L195.406 0.799991L195.406 -8.89938e-06L187.258 -9.25555e-06L187.258 0.799991L179.11 0.79999L179.11 -9.61172e-06L170.961 -9.96788e-06L170.961 0.79999L162.813 0.79999L162.813 -1.03241e-05L154.665 -1.06802e-05L154.665 0.799989L146.517 0.799989L146.517 -1.10364e-05L138.369 -1.13926e-05L138.369 0.799989L130.221 0.799988L130.221 -1.17487e-05L122.072 -1.21049e-05L122.072 0.799988L113.924 0.799988L113.924 -1.24611e-05L105.776 -1.28172e-05L105.776 0.799987L101.702 0.799987C100.312 0.799987 98.9279 0.829134 97.5511 0.88683L97.5176 0.0875317C94.7082 0.205258 91.9272 0.440902 89.179 0.789498L89.2797 1.58314C86.5171 1.93358 83.7879 2.39911 81.097 2.9746L80.9297 2.19229C78.1882 2.77861 75.486 3.47815 72.8281 4.28557L73.0606 5.05102C70.4029 5.85837 67.7897 6.77449 65.226 7.79397L64.9304 7.05059C62.3312 8.08418 59.7826 9.22313 57.2896 10.4619L57.6455 11.1783C55.1624 12.4122 52.7347 13.7459 50.3677 15.1739L49.9544 14.4889C47.563 15.9317 45.2332 17.4698 42.9701 19.0978L43.4372 19.7472C42.314 20.5552 41.2073 21.3854 40.1178 22.2373C39.0708 23.0678 38.043 23.9176 37.0347 24.7858L36.5127 24.1796C34.4672 25.9409 32.5009 27.7775 30.6157 29.6838L31.1846 30.2464C29.3039 32.148 27.5045 34.1196 25.788 36.1553L25.1764 35.6396C23.4403 37.6985 21.7885 39.8223 20.2227 42.0051L20.8727 42.4714C19.3163 44.6411 17.8454 46.8696 16.4618 49.1511L15.7777 48.7363C14.3834 51.0355 13.0771 53.3879 11.8606 55.7876L12.5742 56.1494C11.3681 58.5285 10.2509 60.9546 9.22436 63.4217L8.48575 63.1144C7.45389 65.5943 6.513 68.1152 5.66479 70.6712L6.42407 70.9232C5.58459 73.4529 4.83651 76.0173 4.18161 78.6107L3.40597 78.4148C2.74878 81.0172 2.18475 83.6484 1.71557 86.3026L2.50335 86.4419C2.03967 89.065 1.66928 91.7109 1.39389 94.3738L0.59814 94.2915C0.322261 96.959 0.141017 99.6435 0.0560868 102.339L0.855678 102.364C0.771846 105.025 0.782497 107.697 0.889216 110.374L0.0898694 110.406C0.19662 113.083 0.398799 115.767 0.698023 118.45L1.4931 118.361C1.64071 119.685 1.81216 121.009 2.00756 122.333L389.103 356.209ZM389.103 356.209L388.307 356.287C388.452 357.769 388.606 359.059 388.767 360.137L389.103 356.209Z" stroke="currentcolor" stroke-width="1.6" stroke-dasharray="8 8"/>
</svg>
