<svg viewBox="0 0 494 440" fill="none" xmlns="http://www.w3.org/2000/svg">
<path d="M0.968037 339.202L3.50217 94.8223C3.50948 94.1173 3.51676 93.4124 3.74335 92.71C3.75066 92.005 3.97973 91.0676 3.98704 90.3626C3.99678 89.4227 4.22338 88.7203 4.23312 87.7804C4.46216 86.8429 4.4695 86.138 4.69856 85.2006C4.92759 84.2631 4.9349 83.5582 5.16393 82.6208C5.39299 81.6834 5.62206 80.7459 5.84865 80.0435C6.07768 79.1061 6.30672 78.1686 6.53331 77.4662C6.76237 76.5288 6.99144 75.5913 7.22047 74.6539C7.4495 73.7165 7.67859 72.7791 8.12691 71.8441C8.35597 70.9067 8.80429 69.9718 9.03335 69.0344C9.26238 68.0969 9.71073 67.162 9.93976 66.2246C10.3881 65.2897 10.6171 64.3522 11.0655 63.4173C11.5138 62.4824 11.9622 61.5475 12.1912 60.61C12.6396 59.6751 13.0879 58.7402 13.5363 57.8052C13.9846 56.8703 14.433 55.9354 14.8813 55.0005C15.3297 54.0655 15.778 53.1306 16.4457 52.1982C16.894 51.2633 17.5616 50.3308 18.01 49.3959C18.4583 48.461 19.126 47.5285 19.7936 46.5961C20.4613 45.6637 20.9096 44.7288 21.5772 43.7963C22.2449 42.8639 22.9125 41.9315 23.5802 40.999C24.2478 40.0666 24.9154 39.1342 25.5806 38.4367C26.2483 37.5043 26.9159 36.5719 27.8004 35.8769C28.4681 34.9445 29.3526 34.2495 30.0202 33.3171C30.9072 32.3872 31.5724 31.6897 32.4593 30.7598C33.3462 29.8298 34.2308 29.1349 34.8984 28.2025C35.7829 27.5075 36.6699 26.5776 37.5544 25.8826C38.4388 25.1877 39.3258 24.2577 40.2103 23.5628C41.0948 22.8678 42.201 21.9404 43.0856 21.2454C43.97 20.5505 45.0738 19.858 46.1776 19.1656C47.2815 18.4731 48.166 17.7782 49.2698 17.0857C50.3736 16.3933 51.4774 15.7008 52.5812 15.0084C53.685 14.3159 54.7863 13.8584 55.8902 13.166C56.994 12.4735 58.3146 12.0185 59.4184 11.3261C60.5222 10.6336 61.8429 10.1787 63.1635 9.72368C64.4842 9.2687 65.8073 8.57874 66.9087 8.12127C68.2294 7.66629 69.55 7.21131 70.8707 6.75634C72.1913 6.30136 73.512 5.84638 75.052 5.3939C76.3726 4.93892 77.9102 4.72143 79.2308 4.26645C80.7708 3.81397 82.089 3.59397 83.629 3.14149C85.1665 2.92399 86.7065 2.47151 88.244 2.25401C89.7815 2.03651 91.319 1.81901 92.8566 1.60152C94.3941 1.38402 96.1509 1.16901 97.6885 0.951515C99.4453 0.736512 100.98 0.753993 102.737 0.538991C104.494 0.323989 106.248 0.343968 108.003 0.363946C109.757 0.383925 111.514 0.168922 113.268 0.188901C115.023 0.208879 116.996 0.231355 118.751 0.251333C120.725 0.273809 122.479 0.293787 124.45 0.551244C126.424 0.573719 128.395 0.831176 130.369 0.853651C132.34 1.11111 134.311 1.36856 136.504 1.39354C160.817 4.4905 211.855 10.7119 221.271 12.2292C237.045 13.8189 284.195 14.3558 346.154 3.78096C395.389 -6.46875 485.46 0.432152 493.415 100.401L490.881 344.781C490.874 345.486 490.866 346.191 490.64 346.893C490.63 347.833 490.403 348.536 490.396 349.241C490.386 350.181 490.16 350.883 490.15 351.823C489.921 352.76 489.914 353.465 489.685 354.403C489.456 355.34 489.448 356.045 489.219 356.982C488.99 357.92 488.761 358.857 488.535 359.56C488.306 360.497 488.076 361.435 487.847 362.372C487.618 363.309 487.389 364.247 487.16 365.184C486.931 366.122 486.702 367.059 486.254 367.994C486.025 368.932 485.576 369.866 485.347 370.804C485.118 371.741 484.67 372.676 484.441 373.614C483.993 374.549 483.764 375.486 483.315 376.421C482.867 377.356 482.419 378.291 482.19 379.228C481.741 380.163 481.293 381.098 480.844 382.033C480.396 382.968 479.948 383.903 479.499 384.838C479.051 385.773 478.603 386.708 477.935 387.64C477.267 388.573 476.819 389.507 476.371 390.442C475.922 391.377 475.255 392.31 474.587 393.242C473.92 394.175 473.471 395.109 472.804 396.042C472.136 396.974 471.468 397.907 470.801 398.839C470.133 399.772 469.465 400.704 468.8 401.402C468.132 402.334 467.465 403.266 466.58 403.961C465.913 404.894 465.028 405.589 464.361 406.521C463.474 407.451 462.808 408.149 461.921 409.078C461.035 410.008 460.15 410.703 459.485 411.401C458.6 412.096 457.713 413.026 456.829 413.721C455.944 414.416 455.057 415.346 454.173 416.04C453.288 416.735 452.185 417.428 451.298 418.358C450.413 419.053 449.309 419.745 448.206 420.438C447.102 421.13 446.217 421.825 445.113 422.518C444.01 423.21 442.906 423.902 441.802 424.595C440.698 425.287 439.597 425.745 438.493 426.437C437.389 427.13 436.069 427.585 434.965 428.277C433.861 428.97 432.54 429.425 431.22 429.88C429.899 430.335 428.576 431.025 427.475 431.482C426.154 431.937 424.833 432.392 423.513 432.847C422.192 433.302 420.871 433.757 419.331 434.209C418.011 434.664 416.471 435.117 415.152 435.337C413.612 435.789 412.294 436.009 410.754 436.462C409.217 436.679 407.677 437.132 406.139 437.349C404.602 437.567 403.064 437.784 401.527 438.002C399.989 438.219 398.232 438.434 396.695 438.652C394.938 438.867 393.4 439.084 391.646 439.064C389.889 439.279 388.135 439.259 386.38 439.239C384.626 439.219 382.869 439.434 381.115 439.414C379.36 439.394 377.387 439.372 375.632 439.352C373.659 439.329 371.904 439.309 369.933 439.052C367.959 439.03 365.988 438.772 364.017 438.515C362.046 438.257 360.072 438.235 357.881 437.975C333.568 434.878 282.53 428.656 273.115 427.139C257.34 425.549 210.191 425.013 148.232 435.587C98.9945 446.072 8.92369 439.171 0.968037 339.202Z" fill="#C8E7F1"/>
</svg>
