<svg width="106" height="104" viewBox="0 0 106 104" fill="none" xmlns="http://www.w3.org/2000/svg">
<path d="M82.3229 104H23.7042C23.5351 104 23.366 104 23.1969 103.944C23.0278 103.944 22.8024 103.887 22.6333 103.887C22.4078 103.887 22.2387 103.831 22.0133 103.831C21.7878 103.831 21.6187 103.774 21.3933 103.718C21.1678 103.662 20.9987 103.662 20.7733 103.605C20.5478 103.549 20.3223 103.549 20.1533 103.492C19.9278 103.436 19.7023 103.38 19.5332 103.38C19.3078 103.323 19.0823 103.267 18.8569 103.21C18.6314 103.154 18.406 103.098 18.1805 103.041C17.9551 102.985 17.7296 102.928 17.5041 102.872C17.2787 102.816 17.0532 102.759 16.8278 102.646C16.6023 102.59 16.3769 102.477 16.1514 102.421C15.9259 102.364 15.7005 102.252 15.475 102.195C15.2496 102.082 15.0241 102.026 14.7987 101.913C14.5732 101.8 14.3477 101.744 14.1223 101.631C13.8968 101.518 13.6714 101.406 13.4459 101.293C13.2205 101.18 12.995 101.067 12.7696 100.954C12.5441 100.842 12.3186 100.729 12.0932 100.616C11.8677 100.503 11.6423 100.39 11.4168 100.221C11.1914 100.108 10.9659 99.9393 10.7404 99.8265C10.515 99.7137 10.2895 99.5445 10.1204 99.3753C9.89498 99.2061 9.66953 99.0933 9.50044 98.9241C9.33134 98.7549 9.10589 98.6421 8.88043 98.4729C8.65497 98.3037 8.48588 98.1345 8.26043 97.9653C8.03497 97.7961 7.86588 97.6269 7.64042 97.4577C7.47133 97.2885 7.24587 97.1193 7.07678 96.8937C6.90769 96.7245 6.68223 96.4989 6.51314 96.3297C6.34405 96.1041 6.11859 95.9349 5.9495 95.7093C5.78041 95.4837 5.61131 95.3145 5.44222 95.089C5.27313 94.8633 5.10404 94.6377 4.93494 94.4122C4.76585 94.1866 4.59676 93.961 4.42767 93.7354C4.25857 93.5098 4.14585 93.2842 3.97675 93.0022C3.80766 92.7766 3.69493 92.4946 3.52584 92.269C3.35675 92.0434 3.24402 91.7614 3.13129 91.4794C3.01856 91.1974 2.84947 90.9718 2.73674 90.6898C2.62402 90.4078 2.51129 90.1258 2.39856 89.8438C2.28583 89.5618 2.1731 89.2798 2.06037 88.9978C1.94765 88.7158 1.89128 88.3774 1.77855 88.0955C1.66582 87.8135 1.60946 87.4751 1.49673 87.1367C1.44037 86.7983 1.32764 86.5163 1.27128 86.1779C1.21491 85.8395 1.15855 85.5011 1.10218 85.1627C1.04582 84.8243 0.989456 84.4859 0.933092 84.1475C0.876727 83.8091 0.876727 83.4143 0.820363 83.0759C0.763999 82.6811 0.763999 82.3427 0.763999 81.9479C0.763999 81.5532 0.707635 81.1584 0.707635 80.82C0.707635 80.4252 0.707635 80.0304 0.707635 79.6356C0.707635 79.2408 0.707635 78.846 0.763999 78.4512C0.763999 78.0564 0.820363 77.6052 0.820363 77.2104C0.876727 76.7592 0.933092 76.3644 0.933092 75.9132C1.60946 70.7245 2.9622 59.8959 3.30038 57.8655C3.63857 54.4816 3.63857 44.4989 0.933092 31.3579C-1.65966 21.0369 -0.250556 1.91757 23.7042 0L82.3229 0C82.492 0 82.661 0 82.8301 0.0563991C83.0556 0.0563991 83.2247 0.112798 83.3938 0.112798C83.6192 0.112798 83.7883 0.169197 84.0138 0.169197C84.2392 0.225597 84.4083 0.225597 84.6338 0.281996C84.8592 0.281996 85.0283 0.338395 85.2538 0.394794C85.4792 0.451193 85.7047 0.451193 85.8738 0.507592C86.0993 0.563991 86.3247 0.620391 86.5502 0.620391C86.7756 0.67679 87.0011 0.733189 87.2265 0.789588C87.452 0.845987 87.6774 0.902386 87.9029 0.958785C88.1284 1.01518 88.3538 1.07158 88.5793 1.12798C88.8047 1.18438 89.0302 1.24078 89.2556 1.35358C89.4811 1.46638 89.7066 1.52278 89.932 1.57918C90.1575 1.63557 90.3829 1.74837 90.6084 1.80477C90.8338 1.91757 91.0593 1.97397 91.2848 2.08677C91.5102 2.19957 91.7357 2.25597 91.9611 2.36876C92.1866 2.48156 92.412 2.59436 92.6375 2.70716C92.8629 2.81996 93.0884 2.93276 93.3139 3.04555C93.5393 3.15835 93.7648 3.27115 93.9902 3.38395C94.2157 3.49675 94.4411 3.60954 94.6666 3.77874C94.8921 3.89154 95.1175 4.06074 95.343 4.17354C95.5684 4.28633 95.7939 4.45553 95.963 4.62473C96.1884 4.79393 96.4139 4.90672 96.583 5.07592C96.8084 5.24512 96.9775 5.35792 97.203 5.52712C97.4284 5.69631 97.5975 5.86551 97.823 6.03471C98.0484 6.20391 98.2175 6.3731 98.3866 6.5423C98.5557 6.7115 98.7812 6.93709 98.9503 7.10629C99.1194 7.27549 99.3448 7.50109 99.5139 7.67028C99.683 7.89588 99.8521 8.06508 100.078 8.29067C100.247 8.51627 100.416 8.68547 100.585 8.91106C100.754 9.13666 100.923 9.36226 101.092 9.58785C101.261 9.81345 101.43 10.039 101.599 10.2646C101.768 10.4902 101.881 10.7158 102.05 10.9978C102.219 11.2234 102.332 11.5054 102.501 11.731C102.67 11.9566 102.783 12.2386 102.896 12.5206C103.008 12.8026 103.178 13.0846 103.29 13.3102C103.403 13.5922 103.516 13.8742 103.628 14.1562C103.741 14.4382 103.854 14.7202 103.967 15.0022C104.079 15.2842 104.192 15.6226 104.248 15.9046C104.361 16.1866 104.418 16.5249 104.53 16.8633C104.587 17.2017 104.699 17.4837 104.756 17.8221C104.812 18.1605 104.869 18.4989 104.925 18.8373C104.981 19.1757 105.038 19.5141 105.094 19.8525C105.15 20.1909 105.207 20.5857 105.207 20.9241C105.263 21.3189 105.263 21.6573 105.263 22.0521C105.263 22.4469 105.319 22.7852 105.319 23.18C105.319 23.5748 105.319 23.9696 105.319 24.3644C105.319 24.7592 105.319 25.154 105.263 25.5488C105.263 25.9436 105.207 26.3948 105.15 26.7896C105.094 27.2408 105.094 27.6356 105.038 28.0868C104.361 33.2755 103.008 44.1041 102.67 46.1345C102.332 49.5184 102.332 59.5011 105.038 72.6421C107.687 82.9631 106.278 102.082 82.3229 104Z" fill="#F0F0F0"/>
</svg>
