<svg viewBox="0 0 286 360" fill="none" xmlns="http://www.w3.org/2000/svg" x="0px" y="0px" preserveAspectRatio="none">
<path class="animation-dashed" vector-effect="non-scaling-stroke" d="M284.434 116.47L285.416 116.661L284.247 122.662L283.266 122.471L282.097 128.472L283.078 128.663L281.91 134.665L280.928 134.473L279.76 140.475L280.741 140.666L279.573 146.667L278.591 146.476L277.423 152.477L278.404 152.668L277.236 158.669L276.254 158.478L275.67 161.479C275.456 162.574 275.258 163.674 275.076 164.777L276.063 164.94C275.702 167.122 275.402 169.319 275.163 171.524L274.169 171.417C273.929 173.635 273.75 175.863 273.633 178.096L274.631 178.148C274.515 180.359 274.459 182.575 274.465 184.792L273.465 184.794C273.47 187.028 273.537 189.262 273.665 191.492L274.664 191.434C274.791 193.647 274.979 195.855 275.228 198.056L274.234 198.168C274.36 199.278 274.501 200.387 274.658 201.492L275.099 204.606L276.089 204.466L276.971 210.695L275.981 210.835L276.864 217.064L277.854 216.923L278.736 223.152L277.746 223.292L278.628 229.521L279.618 229.38L280.501 235.609L279.51 235.749L280.393 241.978L281.383 241.838L282.265 248.066L281.275 248.206L281.716 251.321C281.855 252.301 281.982 253.279 282.096 254.255L283.089 254.139C283.321 256.121 283.504 258.095 283.638 260.059L282.64 260.127C282.775 262.102 282.861 264.067 282.899 266.018L283.898 265.999C283.937 267.994 283.926 269.977 283.867 271.944L282.868 271.914C282.808 273.892 282.7 275.855 282.544 277.801L283.541 277.88C283.382 279.87 283.174 281.841 282.918 283.792L281.926 283.662C281.669 285.624 281.363 287.565 281.011 289.483L281.994 289.663C281.633 291.626 281.224 293.565 280.768 295.478L279.795 295.246C279.336 297.173 278.829 299.072 278.276 300.942L279.235 301.226C278.668 303.143 278.053 305.029 277.392 306.882L276.45 306.547C275.785 308.412 275.073 310.243 274.316 312.037L275.237 312.426C274.46 314.268 273.636 316.072 272.768 317.834L271.871 317.392C270.996 319.167 270.075 320.899 269.111 322.586L269.979 323.082C268.987 324.818 267.949 326.507 266.868 328.144L266.033 327.593C264.941 329.247 263.805 330.847 262.628 332.391L263.423 332.997C262.208 334.589 260.95 336.123 259.65 337.593L258.901 336.931C257.592 338.411 256.242 339.826 254.853 341.173L255.549 341.891C254.112 343.285 252.632 344.607 251.114 345.853L250.479 345.08C248.955 346.331 247.392 347.504 245.793 348.594L246.356 349.42C244.707 350.544 243.02 351.583 241.297 352.531L240.815 351.655C239.096 352.602 237.343 353.456 235.559 354.213L235.95 355.134C234.12 355.911 232.257 356.589 230.364 357.162L230.075 356.204C228.213 356.768 226.323 357.229 224.409 357.581L224.59 358.564C222.649 358.922 220.683 359.17 218.696 359.305L218.628 358.307C216.703 358.437 214.757 358.459 212.794 358.367L212.747 359.366C210.796 359.274 208.827 359.073 206.845 358.758L207.002 357.77C206.045 357.618 205.085 357.438 204.121 357.231L201.311 356.626L201.101 357.604L195.48 356.395L195.691 355.417L190.07 354.208L189.86 355.186L184.24 353.976L184.45 352.999L178.83 351.79L178.62 352.767L172.999 351.558L173.21 350.581L167.59 349.371L167.379 350.349L161.759 349.14L161.969 348.162L156.349 346.953L156.139 347.931L150.519 346.722L150.729 345.744L147.919 345.14C146.85 344.91 145.778 344.713 144.704 344.549L144.553 345.537C142.43 345.213 140.298 345.02 138.166 344.958L138.195 343.959C136.016 343.896 133.836 343.967 131.662 344.173L131.756 345.168C129.636 345.369 127.522 345.699 125.42 346.16L125.206 345.183C124.146 345.415 123.089 345.68 122.037 345.977L118.792 346.892L119.063 347.855L112.574 349.686L112.302 348.723L105.813 350.554L106.084 351.517L99.5946 353.348L99.323 352.385L92.8334 354.217L93.105 355.179L86.6154 357.01L86.3438 356.048L83.099 356.963C82.1341 357.235 81.172 357.479 80.2132 357.696L80.4333 358.671C78.4437 359.12 76.4665 359.452 74.5049 359.672L74.3934 358.679C72.4105 358.901 70.4444 359.006 68.4983 359L68.4949 360C66.4691 359.993 64.464 359.867 62.4832 359.627L62.6033 358.635C60.6418 358.397 58.7041 358.046 56.794 357.586L56.5599 358.558C54.6085 358.088 52.6858 357.507 50.7953 356.82L51.1368 355.88C49.2919 355.21 47.4773 354.437 45.6967 353.565L45.2572 354.464C43.4651 353.587 41.7078 352.613 39.9889 351.547L40.5159 350.697C38.8488 349.663 37.2174 348.541 35.6251 347.335L35.0213 348.132C33.4367 346.932 31.8911 345.65 30.3877 344.292L31.058 343.55C29.6033 342.236 28.188 340.849 26.8152 339.393L26.0876 340.079C24.7234 338.632 23.4012 337.119 22.1238 335.543L22.9007 334.913C21.6628 333.386 20.4671 331.799 19.3162 330.155L18.4971 330.729C17.3551 329.098 16.2572 327.413 15.2059 325.677L16.0613 325.159C15.042 323.477 14.0668 321.746 13.1381 319.97L12.2519 320.433C11.3297 318.67 10.453 316.863 9.62422 315.016L10.5366 314.607C9.72926 312.808 8.96764 310.97 8.25389 309.096L7.3194 309.452C6.61006 307.59 5.94766 305.693 5.33426 303.765L6.28721 303.462C5.68844 301.58 5.13672 299.667 4.63403 297.726L3.66597 297.977C3.16592 296.046 2.714 294.089 2.31209 292.107L3.29214 291.908C2.89917 289.97 2.55441 288.008 2.25967 286.026L1.27054 286.173C0.977122 284.199 0.732868 282.205 0.539515 280.193L1.53493 280.098C1.34567 278.128 1.20559 276.141 1.11636 274.14L0.11735 274.184C0.0284803 272.191 -0.0103842 270.182 0.00236513 268.161L1.00235 268.168C1.01483 266.189 1.07723 264.198 1.19108 262.198L0.192699 262.141C0.306082 260.149 0.470063 258.147 0.686137 256.138L1.6804 256.245C1.89197 254.277 2.15389 252.303 2.46761 250.324L1.47994 250.167C1.79219 248.197 2.15532 246.222 2.57071 244.244L3.54937 244.449C3.75409 243.474 3.97161 242.498 4.20211 241.522L4.88021 238.651L3.90698 238.421L5.26319 232.677L6.23643 232.907L7.59264 227.163L6.6194 226.934L7.97561 221.19L8.94885 221.42L10.3051 215.676L9.33183 215.446L10.688 209.703L11.6613 209.933L12.3394 207.061C12.595 205.978 12.8352 204.891 13.0599 203.8L12.0805 203.598C12.5249 201.439 12.9085 199.264 13.2312 197.077L14.2205 197.223C14.545 195.023 14.8083 192.812 15.0106 190.593L14.0147 190.502C14.2149 188.305 14.3546 186.101 14.4339 183.894L15.4333 183.93C15.5132 181.706 15.5322 179.479 15.4904 177.254L14.4906 177.273C14.449 175.065 14.3471 172.859 14.1848 170.658L15.1821 170.585C15.0182 168.363 14.7932 166.148 14.5071 163.942L13.5154 164.071C13.2311 161.879 12.8859 159.697 12.4798 157.531L13.4627 157.346C13.2575 156.251 13.0369 155.16 12.8008 154.073L12.1197 150.936L11.1425 151.149L9.78035 144.876L10.7576 144.663L9.39541 138.39L8.41819 138.603L7.05603 132.329L8.03325 132.117L6.67109 125.844L5.69386 126.056L4.3317 119.783L5.30893 119.571L4.62785 116.435C4.40892 115.426 4.20367 114.419 4.01195 113.412L3.0296 113.599C2.6404 111.555 2.30643 109.514 2.02619 107.48L3.01683 107.343C2.73537 105.299 2.50856 103.261 2.33487 101.232L1.33851 101.317C1.16117 99.2445 1.03875 97.1804 0.969626 95.1272L1.96906 95.0935C1.89967 93.0322 1.88446 90.9819 1.92177 88.9453L0.921936 88.9269C0.960033 86.8474 1.05243 84.782 1.19739 82.7332L2.1949 82.8037C2.34045 80.7467 2.53944 78.7066 2.79008 76.6864L1.79769 76.5632C2.05384 74.4985 2.3635 72.4542 2.72478 70.4331L3.70917 70.6091C4.07252 68.5765 4.48851 66.5678 4.9552 64.5859L3.98183 64.3567C4.45936 62.3288 4.98954 60.3287 5.57034 58.3593L6.52949 58.6422C7.11359 56.6616 7.74927 54.7128 8.43439 52.7989L7.49289 52.4619C8.19526 50.4999 8.9492 48.574 9.7525 46.6876L10.6726 47.0794C11.4811 45.1805 12.3401 43.3226 13.247 41.5089L12.3525 41.0617C13.2853 39.1963 14.2685 37.3771 15.2997 35.6076L16.1637 36.1111C17.2044 34.3253 18.2942 32.5913 19.4304 30.9131L18.6023 30.3525C19.773 28.6233 20.9929 26.9522 22.259 25.3434L23.0448 25.9618C24.3198 24.3417 25.6419 22.7862 27.0079 21.2997L26.2715 20.623C27.6852 19.0847 29.1459 17.6186 30.6507 16.2296L31.329 16.9645C32.8423 15.5676 34.3999 14.2505 35.9985 13.018L35.3879 12.2261C37.038 10.9539 38.732 9.76983 40.4664 8.67927L40.9987 9.52582C42.7339 8.43479 44.5091 7.43951 46.3207 6.54526L45.8781 5.64855C47.7398 4.72953 49.6405 3.91486 51.5763 3.21034L51.9183 4.15004C53.8272 3.45529 55.7701 2.86992 57.7432 2.39951L57.5113 1.42677C59.5151 0.94907 61.5501 0.587504 63.6127 0.34789L63.7281 1.34121C65.7278 1.10891 67.754 0.993462 69.8032 1.00042L69.8066 0.000424476C71.8446 0.00734302 73.9046 0.13301 75.9834 0.382643L75.8642 1.37551C76.8675 1.496 77.8756 1.64594 78.888 1.82596L81.6279 2.31319L81.8029 1.32864L87.2827 2.3031L87.1076 3.28765L92.5874 4.26211L92.7624 3.27755L98.2422 4.25201L98.0671 5.23656L103.547 6.21102L103.722 5.22647L109.202 6.20092L109.027 7.18548L114.506 8.15993L114.681 7.17538L120.161 8.14984L119.986 9.13439L125.466 10.1088L125.641 9.12429L131.121 10.0987L130.946 11.0833L133.686 11.5705C134.457 11.7078 135.231 11.828 136.005 11.9311L136.137 10.9398C137.663 11.1431 139.194 11.2786 140.725 11.3465L140.681 12.3455C142.245 12.4148 143.811 12.4148 145.376 12.3455L145.331 11.3465C146.863 11.2786 148.393 11.1431 149.92 10.9398L150.052 11.9311C150.826 11.828 151.599 11.7078 152.371 11.5705L155.265 11.0558L155.09 10.0712L160.879 9.0418L161.054 10.0264L166.843 8.9969L166.668 8.01235L172.457 6.98289L172.632 7.96745L178.421 6.938L178.246 5.95344L184.035 4.92399L184.21 5.90855L190 4.87909L189.824 3.89454L195.613 2.86509L195.789 3.84964L201.578 2.82019L201.402 1.83564L207.191 0.806183L207.367 1.79074L210.169 1.29243C211.126 1.30346 212.073 1.33002 213.01 1.37194L213.055 0.372942C215.056 0.462464 217.013 0.62123 218.926 0.847642L218.809 1.84071C220.772 2.07302 222.687 2.37734 224.555 2.75175L224.752 1.77124C226.714 2.16436 228.625 2.63387 230.487 3.17779L230.206 4.13766C232.088 4.68748 233.918 5.31427 235.695 6.01581L236.062 5.08563C237.909 5.8145 239.702 6.62306 241.441 7.509L240.987 8.40002C242.72 9.28284 244.399 10.2437 246.023 11.2804L246.561 10.4374C248.221 11.4962 249.825 12.6329 251.375 13.8448L250.759 14.6325C252.278 15.8209 253.745 17.0833 255.159 18.4175L255.846 17.6901C257.268 19.0322 258.638 20.4453 259.956 21.9271L259.209 22.5917C260.484 24.026 261.711 25.5263 262.889 27.0908L263.687 26.4893C264.858 28.0434 265.98 29.6591 267.054 31.3342L266.213 31.8742C267.25 33.4915 268.244 35.1659 269.193 36.8954L270.07 36.4142C271.003 38.1133 271.893 39.8642 272.741 41.6651L271.837 42.0912C272.655 43.8288 273.434 45.6142 274.175 47.4459L275.102 47.0711C275.83 48.8715 276.52 50.7153 277.173 52.6011L276.228 52.9283C276.859 54.75 277.455 56.6117 278.016 58.5123L278.975 58.229C279.524 60.0887 280.041 61.9846 280.524 63.9155L279.554 64.1584C280.023 66.0285 280.46 67.932 280.867 69.868L281.846 69.6622C282.246 71.5633 282.616 73.4948 282.957 75.4557L281.972 75.6271C282.303 77.5315 282.607 79.4642 282.883 81.4242L283.874 81.2846C284.145 83.2108 284.39 85.1628 284.609 87.1397L283.616 87.2498C283.829 89.175 284.017 91.1241 284.181 93.0964L285.177 93.0137C285.339 94.9544 285.476 96.917 285.589 98.9007L284.591 98.9578C284.702 100.895 284.79 102.852 284.856 104.829L285.855 104.796C285.92 106.744 285.963 108.711 285.984 110.696L284.984 110.707C284.994 111.655 285 112.608 285 113.564L284.434 116.47Z" stroke-linecap="round" stroke-linejoin="round" stroke="currentcolor" stroke-width="2" stroke-dasharray="6 6"/>
</svg>
