<svg viewBox="0 0 303 378" fill="none" xmlns="http://www.w3.org/2000/svg" x="0px" y="0px" preserveAspectRatio="none">
<path d="M3.85747 122.642C-10.6791 56.2814 31.4447 -7.84076 83.5423 1.34287L141.444 11.5497C147.873 12.683 154.389 12.683 160.818 11.5497L221.988 0.766826C277.534 1.34278 302.203 50.4246 302.203 119.514L292.324 169.8C289.656 183.385 289.294 197.575 291.264 211.365L298.723 263.557C308.036 328.73 265.288 386.288 215.463 375.662L156.077 362.997C147.167 361.097 138.066 361.389 129.237 363.858L88.0938 375.366C33.5856 390.611 -13.2316 323.07 3.41183 253.2L12.0101 217.104C16.2711 199.216 16.4391 180.078 12.4935 162.065L3.85747 122.642Z" fill="currentcolor"/>
</svg>
