<svg width="85" height="68" viewBox="0 0 85 68" fill="none" xmlns="http://www.w3.org/2000/svg">
<path d="M3.29569 44.5736C-3.85603 39.0269 2.77645 26.8998 15.8422 21.6331L30.3637 15.7795C31.9761 15.1296 33.5471 14.3446 35.0349 13.4453L49.1908 4.88969C61.0489 -2.27718 74.5577 -0.504032 75.057 8.28485L75.4387 15.0054C75.5419 16.821 76.2344 18.4252 77.4673 19.7043L82.1338 24.5457C87.9609 30.5911 80.8172 42.0715 68.2201 46.9058L53.2056 52.6679C50.953 53.5324 48.7747 54.661 46.7818 55.9962L37.4942 62.2187C25.1897 70.4625 10.19 68.6752 10.3631 58.9858L10.4525 53.9801C10.4969 51.4995 9.48564 49.3745 7.54443 47.8689L3.29569 44.5736Z" fill="currentcolor"/>
</svg>
