<svg viewBox="0 0 565 454" fill="none" xmlns="http://www.w3.org/2000/svg" x="0px" y="0px" preserveAspectRatio="none">
<path class="animation-dashed" fill-rule="evenodd" clip-rule="evenodd" d="M559.857 170.275C549.245 128.158 514.653 95.3122 476.717 67.7301C440.405 41.3292 395.66 26.4426 348.116 16.3268C297.228 5.49948 244.47 -6.2769 192.068 7.16578C137.19 21.2435 85.074 50.9149 53.4485 91.9172C22.7442 131.725 30.7964 179.924 23.5883 225.599C16.1603 272.667 -12.2223 322.712 10.492 364.115C33.3898 405.854 90.0185 424.99 141.714 440.92C189.396 455.612 241.161 453.589 293.46 451.309C349.395 448.869 410.615 456.23 457.22 427.161C503.984 397.993 517.137 346.023 535.352 300.435C552.553 257.383 570.591 212.877 559.857 170.275Z" stroke="currentcolor" stroke-width="2" stroke-dasharray="12 12"/>
</svg>
