<svg width="532" height="426" viewBox="0 0 532 426" fill="none" xmlns="http://www.w3.org/2000/svg">
<path fill-rule="evenodd" clip-rule="evenodd" d="M528.824 159.096C518.834 119.482 486.134 88.6231 450.262 62.7206C415.925 37.9275 373.591 23.9791 328.602 14.5231C280.449 4.40215 230.526 -6.60935 180.907 6.10721C128.944 19.4245 79.5751 47.4103 49.5866 86.0305C20.4716 123.526 28.0305 168.865 21.1481 211.85C14.0557 256.146 -12.875 303.27 8.57101 342.197C30.1905 381.439 83.7672 399.371 132.679 414.291C177.793 428.053 226.794 426.082 276.3 423.868C329.248 421.5 387.186 428.345 431.338 400.934C475.641 373.429 488.158 324.513 505.459 281.596C521.797 241.066 538.929 199.167 528.824 159.096Z" fill="#C5C5C5"/>
</svg>
