<svg width="20" height="19" viewBox="0 0 20 19" fill="none" xmlns="http://www.w3.org/2000/svg">
<path d="M11.697 3.35785C11.8595 4.07894 11.7813 4.86172 11.5835 5.61122C11.3382 6.54061 10.8205 7.6516 9.88535 8.03492C8.73139 8.51822 7.45976 7.74582 6.97208 6.67674C6.58633 5.82914 6.59256 4.83321 6.70248 3.93051C6.82823 2.96784 7.14909 1.99514 7.86276 1.35707C9.45709 -0.0656691 11.3834 1.62921 11.697 3.35785Z" fill="currentcolor"/>
<path d="M3.8015 2.76885C5.10209 4.16079 5.12035 6.64396 4.0498 8.14815C3.78963 8.52628 3.39589 8.80286 2.93801 8.8363C2.48012 8.86973 2.0416 8.58673 1.74633 8.24707C1.17777 7.60603 0.801699 6.60021 0.648846 5.7209C0.475794 4.67506 0.700865 3.57913 1.26076 2.67297C1.42952 2.39813 1.62816 2.1316 1.92258 1.98829C2.27677 1.86162 2.67312 1.93978 3.00795 2.12954C3.28301 2.30267 3.55017 2.50578 3.8015 2.76885Z" fill="currentcolor"/>
<path d="M17.128 6.47901C15.8274 6.18126 14.4502 6.53806 13.3823 7.3028C12.4736 7.95091 11.2791 9.19533 11.5321 10.4244C11.7729 11.4569 12.7413 11.9196 13.6913 12.0875C15.6072 12.3634 17.8457 11.5384 18.94 9.94428C19.5139 9.1064 19.4489 8.38029 18.8901 7.58103C18.441 6.97327 17.8232 6.64036 17.128 6.47901Z" fill="currentcolor"/>
<path d="M17.1265 14.7496C17.2162 14.7745 17.3357 14.8078 17.4253 14.8328C18.6504 15.1738 19.8491 16.3443 18.8497 17.5787C17.8126 18.8347 12.6847 17.1174 13.4485 15.56C13.5338 15.3585 13.6928 15.2419 13.8818 15.1336C14.8205 14.4938 16.035 14.5101 17.1265 14.7496Z" fill="currentcolor"/>
</svg>
