<svg width="63" height="55" viewBox="0 0 63 55" fill="none" xmlns="http://www.w3.org/2000/svg">
<path d="M32.8774 22.9836C39.2108 15.1326 43.7037 5.91968 54.9103 0.300781C54.4505 4.88233 53.3917 7.97219 51.1549 10.7535C42.7852 21.408 34.4155 32.0625 26.0585 42.6293C25.1914 43.6914 24.2241 44.7424 22.994 45.4971C21.8769 46.1752 21.7284 45.0897 21.6294 44.3661C19.714 42.8178 20.6572 41.2296 21.3999 39.6191C23.2623 35.9056 26.0767 32.6537 28.8784 29.4896C30.5998 27.453 31.9328 25.2844 32.8774 22.9836Z" fill="currentcolor"/>
<path d="M40.7069 54.0504C38.5782 52.5676 36.7135 50.6685 38.5352 48.643C43.7616 42.8075 49.6519 37.3127 55.9802 32.3118C57.3613 31.2176 59.6438 30.9357 61.1086 32.0778C63.0495 33.4508 61.6416 35.433 60.687 36.3964C54.6583 42.1431 48.5547 47.7033 42.4511 53.2636C41.9865 53.6576 41.2591 53.7552 40.7069 54.0504Z" fill="currentcolor"/>
<path d="M15.6483 10.3859C12.6903 16.7399 9.58116 23.4334 6.38448 30.0282C5.94395 30.9594 4.81415 31.7251 3.49907 30.9559C2.37187 30.2966 0.415703 30.4364 0.494497 28.4853C0.571988 27.2466 0.737064 26.1068 1.20299 25.0003C3.69508 19.7529 6.08689 14.4944 8.59168 9.15928C8.73006 8.90734 8.86843 8.6554 9.01951 8.31579C10.1138 6.38797 12.31 5.29482 14.3905 5.70333C16.1448 6.25389 15.3005 8.56573 15.6483 10.3859Z" fill="currentcolor"/>
<path d="M32.8774 22.9836C32.7452 26.7106 30.5084 29.4919 27.8704 32.2287C24.4035 35.7647 21.2374 39.3339 21.7297 44.3772C17.919 43.9553 18.9511 41.7534 20.0949 40.1874C24.1052 34.3063 27.8401 28.2165 32.8774 22.9836Z" fill="currentcolor"/>
</svg>
