<svg width="143" height="105" viewBox="0 0 143 105" fill="none" xmlns="http://www.w3.org/2000/svg">
<path d="M56.866 35.3371C74.7826 45.0792 92.6991 54.7093 110.504 64.4515C112.967 65.7952 114.759 65.9072 117.558 64.7874C123.381 62.3239 129.54 62.0999 135.475 64.8994C140.402 67.2509 143.649 70.9462 142.865 76.7691C142.194 82.1441 138.834 85.6154 133.683 86.7352C129.988 87.519 128.084 88.1909 128.98 92.894C129.988 97.821 126.405 101.292 122.149 103.42C118.006 105.548 113.863 105.436 110.28 101.852C106.137 97.7091 103.897 92.67 103.897 86.8471C103.897 84.2716 103.001 82.9279 100.762 81.6961C78.3659 69.3785 55.9702 56.8369 33.5745 44.1834C31.4469 42.9516 29.9912 43.3995 27.9756 44.4073C22.0407 47.3188 15.8819 47.8787 9.6111 45.5271C3.9002 43.3995 0.428872 38.2485 0.876786 32.7616C1.3247 27.7225 5.01999 24.3632 11.6267 23.1314C12.7465 22.9075 13.8663 22.7955 15.21 22.5715C14.3142 20.332 13.4184 18.3163 12.8585 16.1888C11.2908 10.3659 13.4184 4.76695 18.0095 1.96749C22.3766 -0.608012 27.8636 0.287815 32.3427 4.43102C37.8297 9.35807 39.9573 16.0768 41.189 23.0194C41.8609 26.6027 43.8765 28.5064 46.7879 29.9621C49.6994 32.6496 53.3947 33.7694 56.866 35.3371Z" fill="currentcolor"/>
</svg>
