<svg viewBox="0 0 312 272" fill="none" xmlns="http://www.w3.org/2000/svg" x="0px" y="0px" preserveAspectRatio="none">
<path d="M88.7318 1.13948C0.327314 -5.59022 -5.48132 52.5469 2.66493 82.4566C9.89031 116.479 9.92571 142.432 9.04024 151.156C8.1902 156.39 4.43585 184.493 2.66493 197.89C-4.56043 255.092 42.5107 270.327 66.9495 270.795C118.377 262.57 192.154 267.368 222.614 270.795C298.268 280.516 313.639 229.046 311.868 202.096C301.243 166.952 304.253 127.01 307.087 111.432C312.187 85.6347 309.212 50.8335 307.087 36.6575C297.311 0.0182376 242.802 -2.28754 216.77 1.13948C178.518 10.1122 115.473 4.87813 88.7318 1.13948Z" fill="currentcolor"/>
</svg>
