<svg width="159" height="144" viewBox="0 0 159 144" fill="none" xmlns="http://www.w3.org/2000/svg">
<path d="M157.294 88.6268C151.895 74.3565 146.496 60.2082 140.975 46.06C139.626 42.645 138.399 39.9618 140.723 35.9341C143.292 31.5402 140.472 27.6382 136.062 25.5673C131.529 23.4966 127.489 24.9635 125.042 29.2354C122.841 33.019 122.231 36.9235 126.887 39.7262C127.867 40.3355 130.071 40.0899 129.216 42.4085C126.404 49.6086 124.45 57.0522 118.453 62.6686C112.09 68.6513 99.9672 71.1001 88.8157 61.348C79.7474 53.3025 73.2493 43.181 65.6498 34.0364C64.0564 32.2075 64.0555 30.8655 65.4011 28.7905C68.4593 24.0302 69.5577 18.7834 67.839 13.0505C67.7161 12.4406 67.4708 11.9528 67.2255 11.465C65.9989 8.78182 64.0379 6.58721 61.7098 4.88087C60.4845 4.02775 59.2593 3.29662 58.0341 2.5655C57.4215 2.19994 56.8089 1.83438 56.0739 1.4689C55.4613 1.10334 54.3589 0.860138 53.2567 0.860936C52.7669 0.86129 52.277 0.861645 51.9097 0.983912C51.5424 1.10618 51.0526 1.22854 50.6854 1.47281C50.0732 1.71725 49.5835 1.96161 49.0938 2.08397C39.9117 6.11667 36.3642 11.6093 37.1052 20.2709C37.8459 28.3225 42.6258 33.5651 51.8122 35.5104C54.3844 36.1186 54.3853 37.3386 54.6316 39.1685C55.2488 45.8781 56.2333 52.4655 56.6055 59.1753C57.1025 69.0571 57.967 79.0606 54.79 88.823C49.5358 105.175 33.986 109.944 20.6295 99.2179C17.1985 96.5363 14.3802 94.3423 17.193 88.9722C19.1497 85.1888 16.8201 81.4084 12.655 79.7034C8.12247 77.8766 4.57228 79.7092 2.24825 83.615C0.168707 86.9105 -1.29744 91.6697 2.6228 93.4968C8.87086 96.6644 9.85465 102.276 11.6955 107.642C15.2542 117.522 18.9353 127.401 22.4941 137.403C24.3349 142.648 27.0304 144.354 32.9072 142.154C73.065 126.874 113.223 111.961 153.504 97.0477C158.156 95.3363 158.889 92.6517 157.294 88.6268ZM53.5208 27.3351C48.6222 27.3386 44.5779 23.3155 44.5743 18.4355C44.5708 13.5554 48.6093 9.52642 53.5079 9.52287C58.4066 9.51932 62.4509 13.5425 62.4544 18.4225C62.458 23.4246 58.4195 27.3316 53.5208 27.3351Z" fill="currentcolor"/>
</svg>
