<svg width="111" height="118" viewBox="0 0 111 118" fill="none" xmlns="http://www.w3.org/2000/svg">
<path d="M108.767 77.0003C111.187 79.6299 110.006 81.8518 108.173 84.1427C102.384 91.0539 94.9109 95.7758 87.1958 100.113C70.2572 109.474 52.148 115.276 32.8841 117.379C24.1235 118.314 15.436 117.973 6.83735 116.214C2.4361 115.288 1.15134 114 1.01043 109.559C0.668345 99.3122 0.467504 89.0817 0.486505 78.8047C0.448132 74.0891 3.476 70.72 6.74647 67.7352C14.3878 60.8909 23.43 56.2039 32.9961 52.5756C46.8429 47.1476 61.135 42.8408 76.3436 43.7059C82.1038 44.0011 87.3833 45.384 90.1507 51.2651C90.7189 53.8278 92.6233 55.3283 94.4491 56.8913C95.1223 57.8955 95.4103 59.1416 96.4684 59.9038C99.7031 63.5536 102.317 67.6328 105.017 71.579C106.018 73.4769 107.161 75.3908 108.767 77.0003Z" fill="currentcolor"/>
<path d="M94.3785 56.8833C91.7747 55.8747 89.6345 54.5617 90.0801 51.2571C91.9059 52.8201 93.2521 54.8284 94.3785 56.8833Z" fill="currentcolor"/>
<path d="M108.767 77.0003C106.461 75.8827 105.468 73.9143 104.947 71.571C106.561 73.11 107.703 75.0239 108.767 77.0003Z" fill="currentcolor"/>
<path d="M96.3978 59.8958C94.4911 59.68 94.5094 58.2544 94.3785 56.8833C95.5859 57.591 96.1177 58.5792 96.3978 59.8958Z" fill="currentcolor"/>
<path d="M91.8893 91.5077C90.0428 92.6549 88.267 93.8102 86.4205 94.9574C83.9132 96.8865 81.234 98.4391 78.2109 99.239C71.1417 102.293 63.9392 105.261 56.526 107.563C55.6535 108.321 54.4996 108.404 53.4163 108.496C43.7341 111.254 33.7411 112.336 23.7013 113.198C21.2671 113.851 18.8991 112.654 16.4968 113.025C14.3862 112.715 12.2915 112.263 10.2355 112.102C6.97095 111.875 5.6395 110.368 5.73202 107.024C5.8612 100.828 5.7865 94.5379 5.41335 88.3567C5.30759 86.1318 6.0138 86.2118 7.7087 86.4037C34.8966 90.124 58.4907 80.7313 80.5952 66.1731C82.2219 65.0724 83.6765 63.5953 85.0526 62.1806C86.4287 60.766 87.5463 59.1079 88.9622 57.3409C93.9645 64.3316 98.8334 71.2359 103.781 78.0777C104.65 79.2468 103.965 80.24 103.414 81.3197C101.603 84.6838 98.2559 86.4464 95.6849 88.9393C94.4352 89.8686 93.3109 90.9548 91.8893 91.5077Z" fill="#FEFEFE"/>
<path d="M47.3921 59.9873C46.6448 60.9021 45.7722 61.6599 45.1582 62.6611C44.4416 63.9363 43.5782 63.9813 42.2444 63.7589C35.8817 62.4676 32.0874 64.3936 29.172 70.5594C28.6127 71.7096 28.0784 72.0061 26.846 72.1521C20.3465 72.7012 18.0431 74.7247 16.5323 81.1209C16.4138 81.5357 16.4206 82.1076 16.1688 82.436C15.1777 83.6087 9.01892 82.4118 6.87194 80.5269C4.71698 78.7126 5.41877 76.936 6.99195 75.044C12.9783 67.6555 21.2345 63.5933 29.4907 59.5312C30.3234 59.1258 31.156 58.7204 32.0593 58.3229C34.2761 56.4324 37.1648 56.1884 39.7175 55.1211L39.6389 55.1835C40.6926 54.0893 42.097 54.3197 43.3455 54.0327C46.2433 53.0759 49.3518 52.7854 52.0936 51.3112C52.7691 51.0307 53.5073 50.8288 54.2761 50.9872C59.1513 50.2542 64.0266 49.5212 68.8232 48.8507C69.5693 48.5783 70.3302 48.8072 71.0683 48.6052C74.3875 48.9809 77.66 49.1373 80.8687 49.8574C84.6343 50.712 85.321 52.8598 83.1725 56.043C82.2361 57.3647 81.0332 58.5134 79.9635 59.7485C77.9187 62.0155 76.4493 62.9912 73.8809 59.7738C70.5062 55.4657 64.7847 55.4604 60.7283 59.07C59.2975 60.3357 58.6073 60.1148 57.3065 58.9682C55.6846 57.4997 53.6378 56.6256 51.3676 57.7248C50.0007 58.4267 48.8843 59.4424 47.3921 59.9873Z" fill="#FEFEFE"/>
<path d="M78.2029 99.3095C80.9368 97.9058 83.6786 96.4316 86.4125 95.0279C84.2651 97.5687 81.9379 99.8037 78.2029 99.3095Z" fill="currentcolor"/>
<path d="M39.7175 55.1211C37.3288 56.6352 34.6667 57.4046 32.0593 58.3229C33.5962 54.8564 36.8755 55.5845 39.7175 55.1211Z" fill="currentcolor"/>
<path d="M16.4968 113.025C18.9231 112.443 21.2843 113.067 23.7013 113.198C21.2671 113.851 18.8716 114.793 16.4968 113.025Z" fill="currentcolor"/>
<path d="M47.3921 59.9873C48.3365 58.5952 49.5314 57.517 51.3756 57.6543C50.3059 58.8895 49.3615 60.2816 47.3921 59.9873Z" fill="currentcolor"/>
<path d="M91.8893 91.5077C92.951 90.343 94.2006 89.4137 95.6849 88.9393C94.6778 90.253 94.1799 92.1239 91.8893 91.5077Z" fill="currentcolor"/>
<path d="M43.3455 54.0327C42.261 54.7666 41.0046 55.124 39.6389 55.1835C40.4819 53.423 41.6677 53.0576 43.3455 54.0327Z" fill="currentcolor"/>
<path d="M53.4163 108.496C54.4062 107.965 55.3801 107.576 56.526 107.563C56.1909 110.523 54.6396 109.063 53.4163 108.496Z" fill="currentcolor"/>
<path d="M71.0763 48.5347C70.4235 49.246 69.6627 49.0171 68.8312 48.7802C68.9828 47.4411 70.3314 48.1649 70.9055 47.516C70.9362 47.8764 70.9669 48.2368 71.0763 48.5347Z" fill="currentcolor"/>
<path d="M54.3547 50.9247C53.7179 51.495 52.9798 51.697 52.1722 51.2487C52.7464 50.5999 53.3684 49.5281 54.3547 50.9247Z" fill="currentcolor"/>
<path d="M70.8426 0.943776C74.3658 1.68618 76.6954 5.38539 75.9434 8.99341C75.2298 12.2622 71.4362 14.667 68.1674 13.9534C65.0778 13.1742 62.9273 9.40943 63.5753 5.96141C64.2041 2.68299 67.7338 0.334177 70.8426 0.943776Z" fill="currentcolor"/>
</svg>
