<svg width="240" height="220" viewBox="0 0 240 220" fill="none" xmlns="http://www.w3.org/2000/svg">
<path d="M186.391 220H53.6699C53.287 220 52.9042 220 52.5213 219.881C52.1385 219.881 51.628 219.761 51.2451 219.761C50.7347 219.761 50.3518 219.642 49.8414 219.642C49.3309 219.642 48.948 219.523 48.4376 219.403C47.9271 219.284 47.5443 219.284 47.0338 219.165C46.5233 219.046 46.0129 219.046 45.63 218.926C45.1195 218.807 44.6091 218.688 44.2262 218.688C43.7157 218.568 43.2053 218.449 42.6948 218.33C42.1843 218.21 41.6739 218.091 41.1634 217.972C40.6529 217.852 40.1425 217.733 39.632 217.614C39.1215 217.495 38.6111 217.375 38.1006 217.137C37.5901 217.017 37.0797 216.779 36.5692 216.659C36.0587 216.54 35.5483 216.302 35.0378 216.182C34.5273 215.944 34.0169 215.824 33.5064 215.586C32.9959 215.347 32.4855 215.228 31.975 214.989C31.4645 214.751 30.9541 214.512 30.4436 214.273C29.9331 214.035 29.4227 213.796 28.9122 213.557C28.4017 213.319 27.8913 213.08 27.3808 212.842C26.8703 212.603 26.3599 212.364 25.8494 212.007C25.3389 211.768 24.8285 211.41 24.318 211.171C23.8075 210.933 23.2971 210.575 22.9142 210.217C22.4037 209.859 21.8933 209.62 21.5104 209.262C21.1276 208.905 20.6171 208.666 20.1066 208.308C19.5962 207.95 19.2133 207.592 18.7029 207.234C18.1924 206.876 17.8095 206.518 17.2991 206.161C16.9162 205.803 16.4057 205.445 16.0229 204.967C15.64 204.61 15.1296 204.132 14.7467 203.774C14.3639 203.297 13.8534 202.939 13.4706 202.462C13.0877 201.985 12.7049 201.627 12.322 201.15C11.9392 200.672 11.5563 200.195 11.1735 199.718C10.7906 199.241 10.4078 198.764 10.0249 198.286C9.64205 197.809 9.38682 197.332 9.00397 196.735C8.62112 196.258 8.36589 195.662 7.98304 195.184C7.60018 194.707 7.34495 194.111 7.08972 193.514C6.83448 192.918 6.45163 192.44 6.1964 191.844C5.94117 191.247 5.68593 190.651 5.4307 190.054C5.17546 189.458 4.92023 188.861 4.665 188.265C4.40976 187.668 4.28215 186.952 4.02691 186.356C3.77168 185.759 3.64406 185.043 3.38883 184.328C3.26121 183.612 3.00598 183.015 2.87836 182.299C2.75074 181.584 2.62313 180.868 2.49551 180.152C2.36789 179.436 2.24028 178.72 2.11266 178.004C1.98504 177.289 1.98504 176.453 1.85743 175.738C1.72981 174.902 1.72981 174.187 1.72981 173.351C1.72981 172.516 1.60219 171.681 1.60219 170.965C1.60219 170.13 1.60219 169.295 1.60219 168.46C1.60219 167.625 1.60219 166.79 1.72981 165.954C1.72981 165.119 1.85743 164.165 1.85743 163.33C1.98504 162.375 2.11266 161.54 2.11266 160.586C3.64406 149.61 6.70687 126.703 7.47257 122.408C8.23827 115.249 8.23827 94.1323 2.11266 66.3341C-3.75771 44.5011 -0.567296 4.0564 53.6699 0H186.391C186.774 0 187.157 0 187.54 0.119306C188.05 0.119306 188.433 0.238612 188.816 0.238612C189.327 0.238612 189.709 0.357918 190.22 0.357918C190.73 0.477223 191.113 0.477223 191.624 0.596529C192.134 0.596529 192.517 0.715835 193.027 0.835141C193.538 0.954447 194.048 0.954447 194.431 1.07375C194.942 1.19306 195.452 1.31236 195.963 1.31236C196.473 1.43167 196.984 1.55098 197.494 1.67028C198.005 1.78959 198.515 1.90889 199.025 2.0282C199.536 2.14751 200.046 2.26681 200.557 2.38612C201.067 2.50542 201.578 2.62473 202.088 2.86334C202.599 3.10195 203.109 3.22126 203.62 3.34056C204.13 3.45987 204.641 3.69848 205.151 3.81779C205.662 4.0564 206.172 4.1757 206.682 4.41432C207.193 4.65293 207.703 4.77223 208.214 5.01085C208.724 5.24946 209.235 5.48807 209.745 5.72668C210.256 5.96529 210.766 6.20391 211.277 6.44252C211.787 6.68113 212.298 6.91974 212.808 7.15835C213.319 7.39696 213.829 7.63557 214.339 7.99349C214.85 8.2321 215.36 8.59002 215.871 8.82863C216.381 9.06725 216.892 9.42516 217.275 9.78308C217.785 10.141 218.296 10.3796 218.678 10.7375C219.189 11.0954 219.572 11.3341 220.082 11.692C220.593 12.0499 220.976 12.4078 221.486 12.7657C221.996 13.1236 222.379 13.4816 222.762 13.8395C223.145 14.1974 223.656 14.6746 224.038 15.0325C224.421 15.3905 224.932 15.8677 225.315 16.2256C225.697 16.7028 226.08 17.0607 226.591 17.538C226.974 18.0152 227.356 18.3731 227.739 18.8503C228.122 19.3275 228.505 19.8048 228.888 20.282C229.271 20.7592 229.653 21.2364 230.036 21.7137C230.419 22.1909 230.674 22.6681 231.057 23.2646C231.44 23.7419 231.695 24.3384 232.078 24.8156C232.461 25.2928 232.716 25.8894 232.972 26.4859C233.227 27.0824 233.61 27.679 233.865 28.1562C234.12 28.7527 234.375 29.3492 234.631 29.9458C234.886 30.5423 235.141 31.1388 235.396 31.7354C235.651 32.3319 235.907 33.0477 236.034 33.6443C236.29 34.2408 236.417 34.9566 236.672 35.6725C236.8 36.3883 237.055 36.9848 237.183 37.7007C237.311 38.4165 237.438 39.1323 237.566 39.8482C237.693 40.564 237.821 41.2798 237.949 41.9957C238.076 42.7115 238.204 43.5466 238.204 44.2625C238.331 45.0976 238.331 45.8134 238.331 46.6486C238.331 47.4837 238.459 48.1996 238.459 49.0347C238.459 49.8698 238.459 50.705 238.459 51.5401C238.459 52.3753 238.459 53.2104 238.331 54.0456C238.331 54.8807 238.204 55.8351 238.076 56.6703C237.949 57.6247 237.949 58.4599 237.821 59.4143C236.29 70.3905 233.227 93.2972 232.461 97.5922C231.695 104.751 231.695 125.868 237.821 153.666C243.819 175.499 240.629 215.944 186.391 220Z" fill="#F7F4F7"/>
</svg>
