<svg width="127" height="84" viewBox="0 0 127 84" fill="none" xmlns="http://www.w3.org/2000/svg">
<path d="M2.11135 29.6298C2.11135 29.6298 -1.96487 21.6589 3.14219 13.9667C7.27878 7.63917 16.4671 7.0997 21.0488 13.0911C22.4436 14.9356 23.6642 17.471 24.52 20.9516C28.3978 37.125 21.9686 42.3115 21.9686 42.3115C21.9686 42.3115 9.94138 50.7644 2.11135 29.6298Z" fill="currentcolor"/>
<path d="M40.1946 18.1642C40.1946 18.1642 45.178 -1.53029 58.6976 0.778556C58.6976 0.778556 73.118 1.22375 72.7058 18.6459C72.2937 36.068 62.8659 53.6209 50.5203 50.3352C50.3256 50.2553 31.7091 48.7273 40.1946 18.1642Z" fill="currentcolor"/>
<path d="M89.2309 33.3096C99.9647 23.3201 108.328 32.2041 108.328 32.2041C117.351 39.4621 107.7 53.5874 107.7 53.5874C93.1175 75.9999 81.7649 65.0877 81.6599 64.9797C72.6556 59.0368 78.4617 43.2987 89.2309 33.3096Z" fill="currentcolor"/>
<path d="M126.089 73.4137C124.622 79.9295 118.448 81.7945 118.448 81.7945C103.552 88.2598 101.958 77.7762 101.958 77.7762C101.958 77.7762 101.45 71.8046 111.79 65.7601C114.007 64.46 115.926 63.8363 117.592 63.6532C123.016 63.0429 127.301 68.1038 126.089 73.4137Z" fill="currentcolor"/>
</svg>
