<svg width="103" height="103" viewBox="0 0 103 103" fill="none" xmlns="http://www.w3.org/2000/svg">
<circle cx="51.5" cy="51.5" r="51.5" fill="#672666"/>
<path d="M78.9172 41.0487C80.0266 35.8327 81.3695 24.2871 74.4798 23.115C69.5754 22.2945 59.5913 23.8769 56.8471 28.7999C54.7452 28.038 52.5849 27.3933 50.4246 27.3933C48.2643 27.3933 46.1039 28.038 44.002 28.7999C41.1995 23.8769 31.157 22.2359 26.3109 23.115C19.3629 24.2871 20.7058 35.8327 21.8151 41.0487C16.3852 47.6713 18.779 57.2829 19.1877 65.8981C19.6548 75.5097 24.7928 78.4986 34.0179 77.6781C39.0976 77.2093 44.1772 74.8064 44.2356 69.1801C44.2356 67.5977 44.1772 53.7665 44.0604 53.7665C46.1623 53.7665 48.2643 53.7665 50.3662 53.8251C52.4681 53.7665 54.57 53.7665 56.6719 53.7665C56.5551 53.7665 56.4968 67.5391 56.4968 69.1801C56.4968 74.8064 61.5764 77.1507 66.7144 77.6781C75.9395 78.5572 81.0775 75.5097 81.5446 65.8981C81.9533 57.2243 84.2888 47.6713 78.9172 41.0487ZM66.5393 28.9171C68.7579 28.331 71.035 27.9794 73.3121 28.038C75.1221 28.0966 74.8302 33.6056 74.3631 37.2979C70.3344 34.7778 66.0722 32.6093 61.6932 30.7925C62.1603 30.6167 62.8609 30.1478 63.0944 30.0306C64.2038 29.5618 65.3715 29.2101 66.5393 28.9171ZM27.4202 28.038C29.6389 27.8036 32.0328 28.3896 34.1931 28.9171C35.3608 29.2101 36.5285 29.6204 37.6379 30.0306C37.8714 30.1478 38.5721 30.5581 39.0392 30.7925C34.6602 32.6093 30.3979 34.8364 26.3109 37.3565C25.9022 33.6643 25.5519 28.2138 27.4202 28.038ZM77.3992 52.946C77.1072 57.9862 77.2824 63.5538 76.2898 68.4768C75.2973 73.4584 70.3344 73.3998 65.9554 72.4035C64.1454 71.9932 61.5764 70.9383 61.5764 70.0006C61.5764 67.1875 61.5764 64.3157 61.5764 61.5026C61.5764 56.8726 62.9777 50.1914 57.6061 48.8435C57.3142 48.7263 57.0222 48.6676 56.6719 48.6676C54.8035 48.6676 52.5849 48.4918 50.3662 48.4332C48.0891 48.4918 45.9288 48.6676 44.0604 48.6676C43.7101 48.6676 43.4182 48.7263 43.1262 48.8435C37.7547 50.1914 39.1559 56.8726 39.1559 61.5026C39.1559 64.3157 39.1559 67.1875 39.1559 70.0006C39.1559 70.9383 36.5869 71.9932 34.7769 72.4035C30.3979 73.3998 25.4935 73.517 24.4425 68.4768C23.4499 63.5538 23.6251 57.9862 23.3332 52.946C22.9245 46.2648 26.0773 43.2172 31.4489 40.111C35.9447 37.5323 40.674 35.3053 45.5785 33.6056C47.2133 33.0196 48.7897 32.8438 50.3078 32.9024C51.8258 32.8438 53.4023 33.0782 55.0371 33.6056C59.9416 35.3053 64.7293 37.4737 69.1667 40.111C74.655 43.2758 77.8079 46.2648 77.3992 52.946Z" fill="white"/>
<path d="M32.2079 66.1911C33.53 66.1911 34.6018 65.1153 34.6018 63.7883C34.6018 62.4612 33.53 61.3854 32.2079 61.3854C30.8858 61.3854 29.8141 62.4612 29.8141 63.7883C29.8141 65.1153 30.8858 66.1911 32.2079 66.1911Z" fill="white"/>
<path d="M68.5244 66.1911C69.8465 66.1911 70.9183 65.1153 70.9183 63.7883C70.9183 62.4612 69.8465 61.3854 68.5244 61.3854C67.2023 61.3854 66.1306 62.4612 66.1306 63.7883C66.1306 65.1153 67.2023 66.1911 68.5244 66.1911Z" fill="white"/>
<path d="M52.5265 71.7002C52.4681 72.0518 52.2345 72.2277 51.8842 72.2277C51.4755 72.2277 51.3004 72.0518 51.1252 71.7588C51.1252 71.7002 51.0668 71.7002 51.0668 71.7002C51.0668 70.9383 51.1836 70.235 51.1252 69.4731C51.6507 69.2387 52.1178 68.7112 52.6432 68.1838C53.5774 67.3633 53.4023 66.1325 50.3078 66.0153C47.2133 66.1325 47.0381 67.3633 47.9723 68.1838C48.5562 68.7112 49.0233 69.2387 49.6071 69.4731C49.6071 70.235 49.5488 70.9969 49.4904 71.7588C49.3152 72.0518 49.14 72.1691 48.7313 72.2277C48.381 72.2277 48.1475 72.0518 48.0891 71.7002C47.9139 70.7039 46.4543 71.1727 46.6294 72.1104C46.8046 73.1068 47.622 73.6342 48.5562 73.7514C49.2568 73.8101 49.8407 73.5756 50.2494 73.1654C50.3662 73.2826 50.4829 73.3412 50.5997 73.4584C51.0084 73.6928 51.5339 73.7514 52.001 73.7514C52.9352 73.7514 53.7526 73.0482 53.9278 72.1104C54.1613 71.1141 52.7016 70.7039 52.5265 71.7002Z" fill="white"/>
</svg>
