<svg width="220" height="206" viewBox="0 0 220 206" fill="none" xmlns="http://www.w3.org/2000/svg">
<path d="M2.78638 66.9596C-7.71391 30.7616 22.7137 -4.21557 60.3456 0.793886L102.17 6.36147C106.814 6.97967 111.521 6.97967 116.165 6.36147L160.35 0.47967C197.363 -4.44739 227.624 29.3812 218.292 65.2534L211.157 92.6835C209.229 100.094 208.968 107.834 210.391 115.356L215.778 143.826C222.506 179.376 191.627 210.772 155.637 204.976L112.74 198.068C106.304 197.031 99.7301 197.191 93.3529 198.538L63.6334 204.815C24.2601 213.131 -9.5577 176.289 2.46447 138.176L8.67532 118.486C11.7532 108.729 11.8746 98.2896 9.02447 88.4643L2.78638 66.9596Z" fill="#D9D9D9"/>
</svg>
