<svg viewBox="0 0 172 149" fill="none" xmlns="http://www.w3.org/2000/svg" x="0px" y="0px" preserveAspectRatio="none">
<path d="M25.1963 40.4877C25.1963 39.9642 25.1963 39.4406 25.1963 38.7426C25.1963 18.8477 41.469 2.61774 61.4161 2.61774C71.3896 2.61774 80.4883 6.63161 86.9624 13.0887C93.4364 5.23548 103.585 0 114.958 0C134.38 0 150.303 15.3574 151.003 34.5542C162.201 40.6622 169.9 52.5293 169.9 66.1416C169.9 78.8813 163.251 90.0503 153.278 96.5074C154.503 100.172 155.202 104.186 155.202 108.2C155.202 114.657 153.453 120.591 150.653 125.826C153.978 133.679 160.802 145.197 172 148.339C172 148.339 152.578 149.386 139.63 137.868C133.856 141.882 126.682 144.325 118.983 144.325C105.86 144.325 94.3113 137.344 88.0122 126.699C81.3632 133.854 71.9146 138.391 61.4161 138.391C43.9186 138.391 29.3957 126.001 25.8962 109.596C10.8484 105.233 0 91.4464 0 75.0419C0 58.8119 10.6734 45.1997 25.1963 40.4877Z" fill="#FF2525"/>
<path d="M30.6101 43.6225L29.981 43.8267C29.3261 44.0393 28.6798 44.2719 28.043 44.524L27.7081 43.6778C26.3904 44.1994 25.1122 44.8017 23.8799 45.4788L24.3181 46.2764C23.1116 46.9393 21.9502 47.676 20.8404 48.4805L20.3062 47.7437C19.1625 48.5728 18.0721 49.472 17.0416 50.4351L17.6631 51.0999C16.66 52.0375 15.7153 53.0373 14.8356 54.0933L14.1364 53.5108C13.2348 54.5932 12.3994 55.7332 11.637 56.9246L12.4035 57.4152C11.666 58.5677 10.9987 59.7696 10.4079 61.0151L9.58566 60.6251C8.98428 61.8929 8.45993 63.2047 8.01891 64.5547L8.88397 64.8373C8.46129 66.1312 8.11729 67.4612 7.85783 68.822L6.96388 68.6515C6.70256 70.0221 6.52466 71.423 6.43585 72.849L7.34415 72.9055C7.30173 73.5866 7.28018 74.2736 7.28018 74.966C7.28018 75.6679 7.3022 76.3643 7.34557 77.0546L6.43732 77.1117C6.52812 78.5569 6.71004 79.9766 6.97755 81.3652L7.87119 81.1931C8.13681 82.5719 8.48914 83.9189 8.92241 85.2284L8.05841 85.5143C8.51059 86.881 9.04857 88.208 9.66611 89.489L10.4859 89.0938C11.0924 90.352 11.778 91.5646 12.5363 92.7253L11.7744 93.223C12.5583 94.4229 13.4179 95.5687 14.3466 96.6538L15.038 96.0621C15.9427 97.1192 16.9149 98.1172 17.9483 99.0495L17.3387 99.7252C18.399 100.682 19.5219 101.571 20.701 102.387L21.2186 101.638C22.3587 102.427 23.5527 103.144 24.7944 103.784L24.3775 104.593C25.6414 105.244 26.9534 105.818 28.3074 106.307L28.6167 105.451C29.2686 105.687 29.9305 105.902 30.6016 106.097L31.1246 106.249L31.2382 106.781C31.3938 107.511 31.5737 108.232 31.7768 108.943L30.9018 109.193C31.3239 110.671 31.8441 112.108 32.455 113.497L33.288 113.131C33.8887 114.496 34.5794 115.814 35.3529 117.075L34.5771 117.551C35.377 118.855 36.2629 120.102 37.227 121.281L37.9317 120.706C38.8724 121.857 39.8895 122.943 40.9755 123.956L40.3547 124.621C41.4697 125.662 42.6554 126.627 43.9038 127.51L44.4291 126.766C45.6385 127.621 46.9084 128.396 48.2311 129.083L47.8118 129.89C49.1593 130.59 50.5603 131.201 52.0074 131.715L52.3122 130.858C53.6996 131.351 55.1305 131.753 56.5979 132.056L56.4136 132.947C57.8911 133.253 59.4045 133.461 60.9471 133.565L61.0083 132.657C61.7445 132.707 62.4876 132.732 63.2369 132.732C63.9909 132.732 64.7387 132.706 65.4797 132.655L65.5423 133.563C67.0955 133.456 68.6195 133.241 70.1075 132.927L69.9196 132.037C71.3953 131.725 72.8347 131.313 74.2305 130.808L74.5402 131.664C75.9941 131.137 77.402 130.513 78.7561 129.799L78.3317 128.994C79.6592 128.294 80.934 127.506 82.1483 126.637L82.6779 127.377C83.93 126.481 85.1193 125.502 86.2378 124.448L85.6139 123.786C86.1589 123.272 86.6866 122.741 87.1962 122.192L88.0257 121.3L88.6462 122.349C89.0033 122.952 89.379 123.543 89.7727 124.119L89.0211 124.632C89.8348 125.824 90.7229 126.959 91.6784 128.03L92.3575 127.424C93.2903 128.469 94.2892 129.452 95.3475 130.367L94.7524 131.056C95.8402 131.996 96.989 132.865 98.1918 133.658L98.6927 132.898C99.8578 133.667 101.075 134.361 102.338 134.975L101.939 135.793C103.227 136.419 104.56 136.965 105.933 137.423L106.221 136.56C107.538 137 108.892 137.357 110.278 137.627L110.104 138.52C111.502 138.792 112.93 138.977 114.382 139.069L114.44 138.161C115.134 138.205 115.834 138.228 116.539 138.228C117.37 138.228 118.195 138.196 119.011 138.134L119.08 139.042C120.793 138.912 122.471 138.652 124.102 138.275L123.897 137.388C125.521 137.012 127.098 136.516 128.615 135.913L128.951 136.758C130.541 136.125 132.067 135.377 133.516 134.527L133.055 133.742C133.769 133.323 134.464 132.878 135.137 132.41L135.726 132L136.262 132.477C136.753 132.914 137.254 133.331 137.765 133.729L137.205 134.446C138.279 135.284 139.391 136.039 140.524 136.719L140.993 135.939C142.131 136.623 143.294 137.23 144.464 137.769L144.084 138.596C145.328 139.169 146.579 139.667 147.818 140.098L148.117 139.238C149.397 139.684 150.664 140.058 151.898 140.371L151.673 141.253C153.039 141.601 154.362 141.875 155.615 142.091L155.77 141.194C157.183 141.438 158.505 141.608 159.694 141.724L159.605 142.63C160.896 142.756 162.031 142.821 162.958 142.852L163.293 142.045C161.754 141.406 160.314 140.596 158.971 139.657L158.449 140.403C157.045 139.422 155.747 138.309 154.551 137.113L155.194 136.469C154.02 135.295 152.942 134.034 151.958 132.732L151.232 133.281C150.193 131.908 149.258 130.493 148.422 129.09L149.204 128.624C148.319 127.138 147.544 125.662 146.877 124.259L146.055 124.65C145.679 123.859 145.336 123.092 145.026 122.358L144.856 121.958L145.061 121.575C145.387 120.965 145.697 120.345 145.99 119.715L146.815 120.099C147.41 118.82 147.936 117.5 148.383 116.143L147.518 115.858C147.946 114.557 148.299 113.22 148.567 111.851L149.46 112.026C149.729 110.651 149.915 109.244 150.007 107.806L149.099 107.747C149.143 107.064 149.166 106.375 149.166 105.678C149.166 104.785 149.128 103.891 149.053 103.002L149.96 102.925C149.805 101.082 149.499 99.2577 149.062 97.4936L148.179 97.7125C147.962 96.8366 147.711 95.9761 147.431 95.1363L147.207 94.4674L147.799 94.0841C148.369 93.7152 148.926 93.3292 149.471 92.9269L150.012 93.659C151.134 92.8304 152.203 91.9344 153.213 90.9769L152.587 90.3164C153.571 89.3837 154.497 88.391 155.36 87.3443L156.062 87.923C156.946 86.8493 157.766 85.7203 158.513 84.5418L157.745 84.0543C158.468 82.9134 159.123 81.725 159.703 80.4948L160.526 80.8826C161.116 79.629 161.631 78.3329 162.064 77.0002L161.199 76.719C161.614 75.4406 161.952 74.1275 162.207 72.7851L163.101 72.9548C163.358 71.6008 163.533 70.2178 163.621 68.8109L162.712 68.7545C162.754 68.0826 162.775 67.405 162.775 66.7224C162.775 65.9919 162.751 65.2671 162.702 64.5488L163.61 64.4876C163.509 62.9823 163.306 61.5041 163.008 60.0596L162.117 60.2433C161.822 58.8118 161.431 57.4143 160.952 56.0577L161.81 55.7546C161.311 54.3413 160.719 52.9711 160.041 51.6514L159.231 52.0674C158.567 50.7737 157.817 49.5296 156.99 48.3426L157.737 47.8224C156.884 46.5974 155.951 45.4317 154.946 44.3328L154.274 44.9469C153.295 43.8764 152.246 42.871 151.134 41.9382L151.719 41.241C150.579 40.284 149.374 39.4014 148.114 38.6007L147.626 39.3689C147.014 38.9805 146.389 38.612 145.752 38.2642L145.297 38.0161L145.278 37.4984C145.253 36.8035 145.206 36.1142 145.137 35.4313L146.042 35.34C145.898 33.9126 145.663 32.5119 145.343 31.1435L144.457 31.3509C144.14 29.9966 143.737 28.6749 143.254 27.3918L144.106 27.0714C143.604 25.7362 143.018 24.4416 142.354 23.194L141.551 23.6214C140.9 22.3992 140.174 21.2232 139.377 20.0998L140.119 19.5732C139.297 18.4141 138.402 17.3095 137.441 16.266L136.772 16.8824C135.837 15.8668 134.837 14.9107 133.78 14.0204L134.367 13.3243C133.283 12.4115 132.14 11.5661 130.945 10.7946L130.451 11.5591C129.295 10.8127 128.088 10.1375 126.838 9.53972L127.23 8.71866C125.957 8.10978 124.638 7.57896 123.282 7.13245L122.998 7.99686C121.696 7.5684 120.359 7.21975 118.991 6.95673L119.163 6.06305C117.784 5.79783 116.375 5.61731 114.942 5.52714L114.885 6.43539C114.2 6.39227 113.509 6.37038 112.813 6.37038C112.007 6.37038 111.208 6.39956 110.417 6.45677L110.351 5.54908C108.691 5.66915 107.064 5.90938 105.481 6.25974L105.677 7.1483C104.101 7.49719 102.568 7.95831 101.089 8.5212L100.765 7.67068C99.2176 8.25984 97.7272 8.95749 96.3049 9.75223L96.7488 10.5467C95.3439 11.3317 94.0074 12.214 92.7502 13.1819L92.195 12.4608C90.8856 13.4689 89.6595 14.5676 88.5285 15.7444L89.1846 16.375C88.63 16.9521 88.099 17.5483 87.5931 18.1622L86.9566 18.9346L86.2481 18.2277C85.7474 17.7282 85.2293 17.2448 84.6946 16.7786L85.2927 16.0927C84.1983 15.1384 83.037 14.2539 81.8167 13.4465L81.3145 14.2054C80.1383 13.4272 78.9057 12.7225 77.6244 12.0983L78.023 11.2801C76.7212 10.6459 75.3706 10.0926 73.9788 9.62705L73.6901 10.4901C72.3567 10.044 70.9844 9.68073 69.5802 9.40651L69.7547 8.51333C68.3395 8.23697 66.893 8.04868 65.4219 7.95462L65.3638 8.86282C64.6604 8.81785 63.9512 8.795 63.2369 8.795C62.5202 8.795 61.809 8.81825 61.1038 8.86402L61.0449 7.95588C59.5699 8.05163 58.1203 8.24328 56.7024 8.52463L56.8795 9.41728C55.4734 9.69629 54.0994 10.066 52.7637 10.52L52.4709 9.65833C51.0795 10.1312 49.7288 10.6931 48.4255 11.3371L48.8287 12.153C47.5497 12.785 46.3176 13.4983 45.1393 14.2861L44.6335 13.5296C43.4165 14.3433 42.2554 15.2342 41.1574 16.1953L41.7567 16.8801C40.6864 17.8169 39.6776 18.8222 38.7374 19.889L38.0547 19.2873C37.0896 20.3824 36.1948 21.5405 35.3775 22.7546L36.1324 23.2628C35.3407 24.4389 34.6238 25.6687 33.9886 26.9454L33.1738 26.54C32.5261 27.8418 31.9609 29.1912 31.4851 30.5813L32.3461 30.876C31.8893 32.2106 31.5173 33.5838 31.2365 34.9892L30.3441 34.8108C30.0609 36.2284 29.8679 37.6778 29.7715 39.1527L30.6796 39.2121C30.6335 39.9171 30.6101 40.6282 30.6101 41.3447V41.3455V41.3463V41.3472V41.348V41.3488V41.3497V41.3505V41.3513V41.3522V41.353V41.3538V41.3546V41.3555V41.3563V41.3571V41.358V41.3588V41.3596V41.3604V41.3613V41.3621V41.3629V41.3638V41.3646V41.3654V41.3662V41.3671V41.3679V41.3687V41.3695V41.3704V41.3712V41.372V41.3728V41.3737V41.3745V41.3753V41.3761V41.377V41.3778V41.3786V41.3794V41.3803V41.3811V41.3819V41.3827V41.3836V41.3844V41.3852V41.386V41.3869V41.3877V41.3885V41.3893V41.3901V41.391V41.3918V41.3926V41.3934V41.3943V41.3951V41.3959V41.3967V41.3975V41.3984V41.3992V41.4V41.4008V41.4016V41.4025V41.4033V41.4041V41.4049V41.4057V41.4065V41.4074V41.4082V41.409V41.4098V41.4106V41.4115V41.4123V41.4131V41.4139V41.4147V41.4155V41.4164V41.4172V41.418V41.4188V41.4196V41.4204V41.4213V41.4221V41.4229V41.4237V41.4245V41.4253V41.4261V41.427V41.4278V41.4286V41.4294V41.4302V41.431V41.4318V41.4327V41.4335V41.4343V41.4351V41.4359V41.4367V41.4375V41.4383V41.4391V41.44V41.4408V41.4416V41.4424V41.4432V41.444V41.4448V41.4456V41.4464V41.4473V41.4481V41.4489V41.4497V41.4505V41.4513V41.4521V41.4529V41.4537V41.4545V41.4553V41.4562V41.457V41.4578V41.4586V41.4594V41.4602V41.461V41.4618V41.4626V41.4634V41.4642V41.465V41.4658V41.4666V41.4674V41.4683V41.4691V41.4699V41.4707V41.4715V41.4723V41.4731V41.4739V41.4747V41.4755V41.4763V41.4771V41.4779V41.4787V41.4795V41.4803V41.4811V41.4819V41.4827V41.4835V41.4843V41.4851V41.4859V41.4867V41.4875V41.4883V41.4891V41.4899V41.4907V41.4915V41.4923V41.4931V41.4939V41.4947V41.4955V41.4963V41.4971V41.4979V41.4987V41.4995V41.5003V41.5011V41.5019V41.5027V41.5035V41.5043V41.5051V41.5059V41.5067V41.5075V41.5083V41.5091V41.5099V41.5107V41.5115V41.5123V41.5131V41.5139V41.5147V41.5155V41.5163V41.5171V41.5179V41.5187V41.5195V41.5203V41.5211V41.5219V41.5227V41.5234V41.5242V41.525V41.5258V41.5266V41.5274V41.5282V41.529V41.5298V41.5306V41.5314V41.5322V41.533V41.5338V41.5345V41.5353V41.5361V41.5369V41.5377V41.5385V41.5393V41.5401V41.5409V41.5417V41.5425V41.5433V41.544V41.5448V41.5456V41.5464V41.5472V41.548V41.5488V41.5496V41.5504V41.5511V41.5519V41.5527V41.5535V41.5543V41.5551V41.5559V41.5567V41.5574V41.5582V41.559V41.5598V41.5606V41.5614V41.5622V41.563V41.5637V41.5645V41.5653V41.5661V41.5669V41.5677V41.5685V41.5692V41.57V41.5708V41.5716V41.5724V41.5732V41.5739V41.5747V41.5755V41.5763V41.5771V41.5779V41.5786V41.5794V41.5802V41.581V41.5818V41.5826V41.5833V41.5841V41.5849V41.5857V41.5865V41.5873V41.588V41.5888V41.5896V41.5904V41.5912V41.5919V41.5927V41.5935V41.5943V41.5951V41.5958V41.5966V41.5974V41.5982V41.599V41.5997V41.6005V41.6013V41.6021V41.6029V41.6036V41.6044V41.6052V41.606V41.6067V41.6075V41.6083V41.6091V41.6098V41.6106V41.6114V41.6122V41.613V41.6137V41.6145V41.6153V41.6161V41.6168V41.6176V41.6184V41.6192V41.6199V41.6207V41.6215V41.6223V41.623V41.6238V41.6246V41.6254V41.6261V41.6269V41.6277V41.6285V41.6292V41.63V41.6308V41.6315V41.6323V41.6331V41.6339V41.6346V41.6354V41.6362V41.6369V41.6377V41.6385V41.6393V41.64V41.6408V41.6416V41.6423V41.6431V41.6439V41.6447V41.6454V41.6462V41.647V41.6477V41.6485V41.6493V41.65V41.6508V41.6516V41.6523V41.6531V41.6539V41.6547V41.6554V41.6562V41.657V41.6577V41.6585V41.6593V41.66V41.6608V41.6616V41.6623V41.6631V41.6639V41.6646V41.6654V41.6662V41.6669V41.6677V41.6685V41.6692V41.67V41.6708V41.6715V41.6723V41.673V41.6738V41.6746V41.6753V41.6761V41.6769V41.6776V41.6784V41.6792V41.6799V41.6807V41.6814V41.6822V41.683V41.6837V41.6845V41.6853V41.686V41.6868V41.6875V41.6883V41.6891V41.6898V41.6906V41.6914V41.6921V41.6929V41.6936V41.6944V41.6952V41.6959V41.6967V41.6974V41.6982V41.699V41.6997V41.7005V41.7012V41.702V41.7028V41.7035V41.7043V41.705V41.7058V41.7066V41.7073V41.7081V41.7088V41.7096V41.7103V41.7111V41.7119V41.7126V41.7134V41.7141V41.7149V41.7156V41.7164V41.7172V41.7179V41.7187V41.7194V41.7202V41.7209V41.7217V41.7224V41.7232V41.724V41.7247V41.7255V41.7262V41.727V41.7277V41.7285V41.7292V41.73V41.7307V41.7315V41.7322V41.733V41.7338V41.7345V41.7353V41.736V41.7368V41.7375V41.7383V41.739V41.7398V41.7405V41.7413V41.742V41.7428V41.7435V41.7443V41.745V41.7458V41.7465V41.7473V41.748V41.7488H29.7001V42.557H30.6101V42.5578V42.5586V42.5594V42.5602V42.561V42.5618V42.5626V42.5634V42.5642V42.565V42.5658V42.5666V42.5674V42.5682V42.569V42.5698V42.5706V42.5714V42.5722V42.573V42.5738V42.5746V42.5754V42.5762V42.577V42.5778V42.5786V42.5794V42.5802V42.581V42.5818V42.5826V42.5834V42.5842V42.585V42.5858V42.5866V42.5874V42.5882V42.589V42.5898V42.5906V42.5914V42.5922V42.593V42.5938V42.5946V42.5954V42.5962V42.597V42.5978V42.5986V42.5994V42.6002V42.601V42.6018V42.6026V42.6034V42.6042V42.605V42.6058V42.6066V42.6074V42.6082V42.609V42.6098V42.6106V42.6114V42.6122V42.613V42.6138V42.6146V42.6154V42.6162V42.617V42.6178V42.6186V42.6194V42.6202V42.621V42.6218V42.6226V42.6234V42.6242V42.6249V42.6257V42.6265V42.6273V42.6281V42.6289V42.6297V42.6305V42.6313V42.6321V42.6329V42.6337V42.6345V42.6353V42.6361V42.6369V42.6377V42.6385V42.6393V42.6401V42.6409V42.6417V42.6425V42.6432V42.644V42.6448V42.6456V42.6464V42.6472V42.648V42.6488V42.6496V42.6504V42.6512V42.652V42.6528V42.6536V42.6544V42.6552V42.656V42.6568V42.6575V42.6583V42.6591V42.6599V42.6607V42.6615V42.6623V42.6631V42.6639V42.6647V42.6655V42.6663V42.6671V42.6679V42.6687V42.6694V42.6702V42.671V42.6718V42.6726V42.6734V42.6742V42.675V42.6758V42.6766V42.6774V42.6782V42.679V42.6798V42.6805V42.6813V42.6821V42.6829V42.6837V42.6845V42.6853V42.6861V42.6869V42.6877V42.6885V42.6893V42.69V42.6908V42.6916V42.6924V42.6932V42.694V42.6948V42.6956V42.6964V42.6972V42.698V42.6988V42.6995V42.7003V42.7011V42.7019V42.7027V42.7035V42.7043V42.7051V42.7059V42.7067V42.7075V42.7082V42.709V42.7098V42.7106V42.7114V42.7122V42.713V42.7138V42.7146V42.7154V42.7161V42.7169V42.7177V42.7185V42.7193V42.7201V42.7209V42.7217V42.7225V42.7233V42.724V42.7248V42.7256V42.7264V42.7272V42.728V42.7288V42.7296V42.7304V42.7311V42.7319V42.7327V42.7335V42.7343V42.7351V42.7359V42.7367V42.7375V42.7382V42.739V42.7398V42.7406V42.7414V42.7422V42.743V42.7438V42.7446V42.7453V42.7461V42.7469V42.7477V42.7485V42.7493V42.7501V42.7509V42.7516V42.7524V42.7532V42.754V42.7548V42.7556V42.7564V42.7572V42.758V42.7587V42.7595V42.7603V42.7611V42.7619V42.7627V42.7635V42.7643V42.765V42.7658V42.7666V42.7674V42.7682V42.769V42.7698V42.7705V42.7713V42.7721V42.7729V42.7737V42.7745V42.7753V42.7761V42.7768V42.7776V42.7784V42.7792V42.78V42.7808V42.7816V42.7824V42.7831V42.7839V42.7847V42.7855V42.7863V42.7871V42.7879V42.7886V42.7894V42.7902V42.791V42.7918V42.7926V42.7934V42.7941V42.7949V42.7957V42.7965V42.7973V42.7981V42.7989V42.7996V42.8004V42.8012V42.802V42.8028V42.8036V42.8044V42.8051V42.8059V42.8067V42.8075V42.8083V42.8091V42.8099V42.8106V42.8114V42.8122V42.813V42.8138V42.8146V42.8154V42.8161V42.8169V42.8177V42.8185V42.8193V42.8201V42.8209V42.8216V42.8224V42.8232V42.824V42.8248V42.8256V42.8264V42.8271V42.8279V42.8287V42.8295V42.8303V42.8311V42.8318V42.8326V42.8334V42.8342V42.835V42.8358V42.8366V42.8373V42.8381V42.8389V42.8397V42.8405V42.8413V42.842V42.8428V42.8436V42.8444V42.8452V42.846V42.8467V42.8475V42.8483V42.8491V42.8499V42.8507V42.8515V42.8522V42.853V42.8538V42.8546V42.8554V42.8562V42.8569V42.8577V42.8585V42.8593V42.8601V42.8609V42.8616V42.8624V42.8632V42.864V42.8648V42.8656V42.8663V42.8671V42.8679V42.8687V42.8695V42.8703V42.871V42.8718V42.8726V42.8734V42.8742V42.875V42.8758V42.8765V42.8773V42.8781V42.8789V42.8797V42.8805V42.8812V42.882V42.8828V42.8836V42.8844V42.8852V42.8859V42.8867V42.8875V42.8883V42.8891V42.8899V42.8906V42.8914V42.8922V42.893V42.8938V42.8946V42.8953V42.8961V42.8969V42.8977V42.8985V42.8993V42.9V42.9008V42.9016V42.9024V42.9032V42.9039V42.9047V42.9055V42.9063V42.9071V42.9079V42.9086V42.9094V42.9102V42.911V42.9118V42.9126V42.9133V42.9141V42.9149V42.9157V42.9165V42.9173V42.918V42.9188V42.9196V42.9204V42.9212V42.922V42.9227V42.9235V42.9243V42.9251V42.9259V42.9267V42.9274V42.9282V42.929V42.9298V42.9306V42.9314V42.9321V42.9329V42.9337V42.9345V42.9353V42.936V42.9368V42.9376V42.9384V42.9392V42.94V42.9407V42.9415V42.9423V42.9431V42.9439V42.9447V42.9454V42.9462V42.947V42.9478V42.9486V42.9494V42.9501V42.9509V42.9517V42.9525V42.9533V42.954V42.9548V42.9556V42.9564V42.9572V42.958V42.9587V42.9595V42.9603V42.9611V43.6225Z" stroke="white" stroke-width="1.82011" stroke-dasharray="4.55 4.55"/>
</svg>
