<svg width="312" height="272" viewBox="0 0 312 272" fill="none" xmlns="http://www.w3.org/2000/svg">
<path d="M88.7319 1.13948C0.327375 -5.59022 -5.48126 52.5469 2.66499 82.4566C9.89037 116.479 9.92577 142.432 9.0403 151.156C8.19026 156.39 4.43591 184.493 2.66499 197.89C-4.56037 255.092 42.5108 270.327 66.9495 270.795C118.377 262.57 192.154 267.368 222.614 270.795C298.268 280.516 313.639 229.046 311.868 202.096C301.243 166.952 304.253 127.01 307.087 111.432C312.187 85.6347 309.212 50.8335 307.087 36.6575C297.311 0.0182376 242.802 -2.28754 216.77 1.13948C178.518 10.1122 115.473 4.87813 88.7319 1.13948Z" fill="white"/>
</svg>
