<svg viewBox="0 0 336 292" fill="none" xmlns="http://www.w3.org/2000/svg" x="0px" y="0px" preserveAspectRatio="none">
<path class="animation-dashed" d="M95.9886 2.21488C1.35045 -4.96016 -4.86776 57.0243 3.8529 88.9133C11.5878 125.187 11.6257 152.858 10.6778 162.159C9.76777 167.739 5.74869 197.702 3.8529 211.985C-3.88194 272.973 46.5083 289.217 72.6703 289.715C127.724 280.946 206.703 286.061 239.311 289.715C320.299 300.079 336.755 245.203 334.859 216.47C323.484 179 326.707 136.415 329.74 119.806C335.2 92.3017 332.015 55.1975 329.74 40.0834C319.276 1.01944 260.923 -1.43893 233.055 2.21488C192.105 11.7814 124.615 6.20095 95.9886 2.21488Z" stroke="currentcolor" stroke-width="2" stroke-dasharray="7 7"/>
</svg>
